<svg xmlns="http://www.w3.org/2000/svg" xmlns:xlink="http://www.w3.org/1999/xlink" width="500" zoomAndPan="magnify" viewBox="0 0 375 374.999991" height="500" preserveAspectRatio="xMidYMid meet" version="1.0"><path fill="#f4263f" d="M 375 187.5 C 375 291.050781 291.050781 375 187.5 375 C 83.957031 375 0 291.050781 0 187.5 C 0 83.957031 83.957031 0 187.5 0 C 291.050781 0 375 83.957031 375 187.5 " fill-opacity="1" fill-rule="nonzero"/><path fill="#000000" d="M 151.042969 140.625 C 151.042969 141.820312 151 143.011719 150.917969 144.199219 C 150.832031 145.386719 150.707031 146.566406 150.542969 147.738281 C 150.375 148.910156 150.167969 150.066406 149.921875 151.207031 C 149.671875 152.351562 149.386719 153.472656 149.058594 154.578125 C 148.734375 155.679688 148.367188 156.757812 147.964844 157.8125 C 147.566406 158.863281 147.125 159.886719 146.652344 160.878906 C 146.179688 161.871094 145.671875 162.832031 145.128906 163.753906 C 144.589844 164.675781 144.015625 165.5625 143.414062 166.40625 C 142.8125 167.25 142.179688 168.050781 141.519531 168.808594 C 140.863281 169.566406 140.175781 170.277344 139.46875 170.9375 C 138.757812 171.601562 138.027344 172.214844 137.277344 172.777344 C 136.523438 173.339844 135.753906 173.851562 134.964844 174.308594 C 134.175781 174.765625 133.375 175.167969 132.558594 175.511719 C 131.742188 175.859375 130.917969 176.148438 130.082031 176.382812 C 129.242188 176.617188 128.402344 176.789062 127.550781 176.90625 C 126.703125 177.023438 125.851562 177.082031 125 177.082031 C 124.148438 177.082031 123.296875 177.023438 122.449219 176.90625 C 121.597656 176.789062 120.757812 176.617188 119.917969 176.382812 C 119.082031 176.148438 118.257812 175.859375 117.441406 175.511719 C 116.625 175.167969 115.820312 174.765625 115.035156 174.308594 C 114.246094 173.851562 113.476562 173.339844 112.722656 172.777344 C 111.972656 172.214844 111.242188 171.601562 110.53125 170.9375 C 109.824219 170.277344 109.136719 169.566406 108.480469 168.808594 C 107.820312 168.050781 107.1875 167.25 106.585938 166.40625 C 105.984375 165.5625 105.410156 164.675781 104.871094 163.753906 C 104.328125 162.832031 103.820312 161.871094 103.347656 160.878906 C 102.875 159.886719 102.433594 158.863281 102.035156 157.8125 C 101.632812 156.757812 101.265625 155.679688 100.941406 154.578125 C 100.613281 153.472656 100.328125 152.351562 100.078125 151.207031 C 99.832031 150.066406 99.625 148.910156 99.457031 147.738281 C 99.292969 146.566406 99.167969 145.386719 99.082031 144.199219 C 99 143.011719 98.957031 141.820312 98.957031 140.625 C 98.957031 139.429688 99 138.238281 99.082031 137.050781 C 99.167969 135.863281 99.292969 134.683594 99.457031 133.511719 C 99.625 132.339844 99.832031 131.183594 100.078125 130.042969 C 100.328125 128.898438 100.613281 127.777344 100.941406 126.671875 C 101.265625 125.570312 101.632812 124.492188 102.035156 123.4375 C 102.433594 122.386719 102.875 121.363281 103.347656 120.371094 C 103.820312 119.378906 104.328125 118.417969 104.871094 117.496094 C 105.410156 116.574219 105.984375 115.6875 106.585938 114.84375 C 107.1875 114 107.820312 113.199219 108.480469 112.441406 C 109.136719 111.683594 109.824219 110.972656 110.53125 110.3125 C 111.242188 109.648438 111.972656 109.035156 112.722656 108.472656 C 113.476562 107.910156 114.246094 107.398438 115.035156 106.941406 C 115.820312 106.484375 116.625 106.082031 117.441406 105.738281 C 118.257812 105.390625 119.082031 105.101562 119.917969 104.867188 C 120.757812 104.632812 121.597656 104.460938 122.449219 104.34375 C 123.296875 104.226562 124.148438 104.167969 125 104.167969 C 125.851562 104.167969 126.703125 104.226562 127.550781 104.34375 C 128.402344 104.460938 129.242188 104.632812 130.082031 104.867188 C 130.917969 105.101562 131.742188 105.390625 132.558594 105.738281 C 133.375 106.082031 134.175781 106.484375 134.964844 106.941406 C 135.753906 107.398438 136.523438 107.910156 137.277344 108.472656 C 138.027344 109.035156 138.757812 109.648438 139.46875 110.3125 C 140.175781 110.972656 140.863281 111.683594 141.519531 112.441406 C 142.179688 113.199219 142.8125 114 143.414062 114.84375 C 144.015625 115.6875 144.589844 116.574219 145.128906 117.496094 C 145.671875 118.417969 146.179688 119.378906 146.652344 120.371094 C 147.125 121.363281 147.566406 122.386719 147.964844 123.4375 C 148.367188 124.492188 148.734375 125.570312 149.058594 126.671875 C 149.386719 127.777344 149.671875 128.898438 149.921875 130.042969 C 150.167969 131.183594 150.375 132.339844 150.542969 133.511719 C 150.707031 134.683594 150.832031 135.863281 150.917969 137.050781 C 151 138.238281 151.042969 139.429688 151.042969 140.625 Z M 151.042969 140.625 " fill-opacity="1" fill-rule="nonzero"/><path fill="#000000" d="M 276.042969 140.625 C 276.042969 141.820312 276 143.011719 275.917969 144.199219 C 275.832031 145.386719 275.707031 146.566406 275.542969 147.738281 C 275.375 148.910156 275.167969 150.066406 274.921875 151.207031 C 274.671875 152.351562 274.386719 153.472656 274.058594 154.578125 C 273.734375 155.679688 273.367188 156.757812 272.964844 157.8125 C 272.566406 158.863281 272.125 159.886719 271.652344 160.878906 C 271.179688 161.871094 270.671875 162.832031 270.128906 163.753906 C 269.589844 164.675781 269.015625 165.5625 268.414062 166.40625 C 267.8125 167.25 267.179688 168.050781 266.519531 168.808594 C 265.859375 169.566406 265.175781 170.277344 264.46875 170.9375 C 263.757812 171.601562 263.027344 172.214844 262.277344 172.777344 C 261.523438 173.339844 260.753906 173.851562 259.964844 174.308594 C 259.175781 174.765625 258.375 175.167969 257.558594 175.511719 C 256.742188 175.859375 255.917969 176.148438 255.082031 176.382812 C 254.242188 176.617188 253.402344 176.789062 252.550781 176.90625 C 251.703125 177.023438 250.851562 177.082031 250 177.082031 C 249.148438 177.082031 248.296875 177.023438 247.449219 176.90625 C 246.597656 176.789062 245.757812 176.617188 244.917969 176.382812 C 244.082031 176.148438 243.257812 175.859375 242.441406 175.511719 C 241.625 175.167969 240.820312 174.765625 240.035156 174.308594 C 239.246094 173.851562 238.476562 173.339844 237.722656 172.777344 C 236.972656 172.214844 236.242188 171.601562 235.53125 170.9375 C 234.824219 170.277344 234.136719 169.566406 233.480469 168.808594 C 232.820312 168.050781 232.1875 167.25 231.585938 166.40625 C 230.984375 165.5625 230.410156 164.675781 229.871094 163.753906 C 229.328125 162.832031 228.820312 161.871094 228.347656 160.878906 C 227.875 159.886719 227.433594 158.863281 227.035156 157.8125 C 226.632812 156.757812 226.265625 155.679688 225.941406 154.578125 C 225.613281 153.472656 225.328125 152.351562 225.078125 151.207031 C 224.832031 150.066406 224.625 148.910156 224.457031 147.738281 C 224.292969 146.566406 224.167969 145.386719 224.082031 144.199219 C 224 143.011719 223.957031 141.820312 223.957031 140.625 C 223.957031 139.429688 224 138.238281 224.082031 137.050781 C 224.167969 135.863281 224.292969 134.683594 224.457031 133.511719 C 224.625 132.339844 224.832031 131.183594 225.078125 130.042969 C 225.328125 128.898438 225.613281 127.777344 225.941406 126.671875 C 226.265625 125.570312 226.632812 124.492188 227.035156 123.4375 C 227.433594 122.386719 227.875 121.363281 228.347656 120.371094 C 228.820312 119.378906 229.328125 118.417969 229.871094 117.496094 C 230.410156 116.574219 230.984375 115.6875 231.585938 114.84375 C 232.1875 114 232.820312 113.199219 233.480469 112.441406 C 234.136719 111.683594 234.824219 110.972656 235.53125 110.3125 C 236.242188 109.648438 236.972656 109.035156 237.722656 108.472656 C 238.476562 107.910156 239.246094 107.398438 240.035156 106.941406 C 240.820312 106.484375 241.625 106.082031 242.441406 105.738281 C 243.257812 105.390625 244.082031 105.101562 244.917969 104.867188 C 245.757812 104.632812 246.597656 104.460938 247.449219 104.34375 C 248.296875 104.226562 249.148438 104.167969 250 104.167969 C 250.851562 104.167969 251.703125 104.226562 252.550781 104.34375 C 253.402344 104.460938 254.242188 104.632812 255.082031 104.867188 C 255.917969 105.101562 256.742188 105.390625 257.558594 105.738281 C 258.375 106.082031 259.175781 106.484375 259.964844 106.941406 C 260.753906 107.398438 261.523438 107.910156 262.277344 108.472656 C 263.027344 109.035156 263.757812 109.648438 264.46875 110.3125 C 265.175781 110.972656 265.859375 111.683594 266.519531 112.441406 C 267.179688 113.199219 267.8125 114 268.414062 114.84375 C 269.015625 115.6875 269.589844 116.574219 270.128906 117.496094 C 270.671875 118.417969 271.179688 119.378906 271.652344 120.371094 C 272.125 121.363281 272.566406 122.386719 272.964844 123.4375 C 273.367188 124.492188 273.734375 125.570312 274.058594 126.671875 C 274.386719 127.777344 274.671875 128.898438 274.921875 130.042969 C 275.167969 131.183594 275.375 132.339844 275.542969 133.511719 C 275.707031 134.683594 275.832031 135.863281 275.917969 137.050781 C 276 138.238281 276.042969 139.429688 276.042969 140.625 Z M 276.042969 140.625 " fill-opacity="1" fill-rule="nonzero"/><path fill="#ffffff" d="M 260.417969 218.75 C 283.425781 218.75 302.082031 237.40625 302.082031 260.417969 C 302.082031 283.425781 283.425781 302.082031 260.417969 302.082031 L 114.582031 302.082031 C 91.574219 302.082031 72.917969 283.425781 72.917969 260.417969 C 72.917969 237.40625 91.574219 218.75 114.582031 218.75 Z M 260.417969 218.75 " fill-opacity="1" fill-rule="nonzero"/><path fill="#000000" d="M 260.417969 208.332031 L 114.582031 208.332031 C 85.863281 208.332031 62.5 231.699219 62.5 260.417969 C 62.5 289.136719 85.863281 312.5 114.582031 312.5 L 260.417969 312.5 C 289.136719 312.5 312.5 289.136719 312.5 260.417969 C 312.5 231.699219 289.136719 208.332031 260.417969 208.332031 Z M 260.417969 229.167969 C 275.863281 229.167969 288.644531 240.457031 291.136719 255.207031 L 255.207031 255.207031 L 255.207031 229.167969 Z M 244.792969 229.167969 L 244.792969 255.207031 L 213.542969 255.207031 L 213.542969 229.167969 Z M 203.125 229.167969 L 203.125 255.207031 L 171.875 255.207031 L 171.875 229.167969 Z M 161.457031 229.167969 L 161.457031 255.207031 L 130.207031 255.207031 L 130.207031 229.167969 Z M 114.582031 229.167969 L 119.792969 229.167969 L 119.792969 255.207031 L 83.863281 255.207031 C 86.355469 240.457031 99.136719 229.167969 114.582031 229.167969 Z M 114.582031 291.667969 C 99.136719 291.667969 86.355469 280.375 83.863281 265.625 L 119.792969 265.625 L 119.792969 291.667969 Z M 130.207031 291.667969 L 130.207031 265.625 L 161.457031 265.625 L 161.457031 291.667969 Z M 171.875 291.667969 L 171.875 265.625 L 203.125 265.625 L 203.125 291.667969 Z M 213.542969 291.667969 L 213.542969 265.625 L 244.792969 265.625 L 244.792969 291.667969 Z M 260.417969 291.667969 L 255.207031 291.667969 L 255.207031 265.625 L 291.136719 265.625 C 288.644531 280.375 275.863281 291.667969 260.417969 291.667969 Z M 260.417969 291.667969 " fill-opacity="1" fill-rule="nonzero"/></svg>