<svg xmlns="http://www.w3.org/2000/svg" xmlns:xlink="http://www.w3.org/1999/xlink" width="500" zoomAndPan="magnify" viewBox="0 0 375 374.999991" height="500" preserveAspectRatio="xMidYMid meet" version="1.0"><path fill="#2a45f8" d="M 375 187.5 C 375 291.050781 291.050781 375 187.5 375 C 83.957031 375 0 291.050781 0 187.5 C 0 83.957031 83.957031 0 187.5 0 C 291.050781 0 375 83.957031 375 187.5 " fill-opacity="1" fill-rule="nonzero"/><path fill="#000000" d="M 145.832031 171.875 C 145.832031 173.070312 145.792969 174.261719 145.707031 175.449219 C 145.625 176.636719 145.5 177.816406 145.332031 178.988281 C 145.167969 180.160156 144.960938 181.316406 144.710938 182.457031 C 144.464844 183.601562 144.175781 184.722656 143.851562 185.828125 C 143.523438 186.929688 143.160156 188.007812 142.757812 189.0625 C 142.355469 190.113281 141.917969 191.136719 141.445312 192.128906 C 140.96875 193.121094 140.464844 194.082031 139.921875 195.003906 C 139.382812 195.925781 138.808594 196.8125 138.207031 197.65625 C 137.601562 198.5 136.972656 199.300781 136.3125 200.058594 C 135.652344 200.816406 134.96875 201.527344 134.257812 202.1875 C 133.550781 202.851562 132.820312 203.464844 132.066406 204.027344 C 131.316406 204.589844 130.546875 205.101562 129.757812 205.558594 C 128.96875 206.015625 128.167969 206.417969 127.351562 206.761719 C 126.535156 207.109375 125.707031 207.398438 124.871094 207.632812 C 124.035156 207.867188 123.191406 208.039062 122.34375 208.15625 C 121.496094 208.273438 120.644531 208.332031 119.792969 208.332031 C 118.9375 208.332031 118.089844 208.273438 117.238281 208.15625 C 116.390625 208.039062 115.546875 207.867188 114.710938 207.632812 C 113.875 207.398438 113.046875 207.109375 112.230469 206.761719 C 111.414062 206.417969 110.613281 206.015625 109.824219 205.558594 C 109.039062 205.101562 108.269531 204.589844 107.515625 204.027344 C 106.761719 203.464844 106.03125 202.851562 105.324219 202.1875 C 104.613281 201.527344 103.929688 200.816406 103.269531 200.058594 C 102.613281 199.300781 101.980469 198.5 101.378906 197.65625 C 100.773438 196.8125 100.203125 195.925781 99.660156 195.003906 C 99.121094 194.082031 98.613281 193.121094 98.140625 192.128906 C 97.664062 191.136719 97.226562 190.113281 96.824219 189.0625 C 96.421875 188.007812 96.058594 186.929688 95.730469 185.828125 C 95.40625 184.722656 95.117188 183.601562 94.871094 182.457031 C 94.625 181.316406 94.417969 180.160156 94.25 178.988281 C 94.085938 177.816406 93.957031 176.636719 93.875 175.449219 C 93.792969 174.261719 93.75 173.070312 93.75 171.875 C 93.75 170.679688 93.792969 169.488281 93.875 168.300781 C 93.957031 167.113281 94.085938 165.933594 94.25 164.761719 C 94.417969 163.589844 94.625 162.433594 94.871094 161.292969 C 95.117188 160.148438 95.40625 159.027344 95.730469 157.921875 C 96.058594 156.820312 96.421875 155.742188 96.824219 154.6875 C 97.226562 153.636719 97.664062 152.613281 98.140625 151.621094 C 98.613281 150.628906 99.121094 149.667969 99.660156 148.746094 C 100.203125 147.824219 100.773438 146.9375 101.378906 146.09375 C 101.980469 145.25 102.613281 144.449219 103.269531 143.691406 C 103.929688 142.933594 104.613281 142.222656 105.324219 141.5625 C 106.03125 140.898438 106.761719 140.285156 107.515625 139.722656 C 108.269531 139.160156 109.039062 138.648438 109.824219 138.191406 C 110.613281 137.734375 111.414062 137.332031 112.230469 136.988281 C 113.046875 136.640625 113.875 136.351562 114.710938 136.117188 C 115.546875 135.882812 116.390625 135.710938 117.238281 135.59375 C 118.089844 135.476562 118.9375 135.417969 119.792969 135.417969 C 120.644531 135.417969 121.496094 135.476562 122.34375 135.59375 C 123.191406 135.710938 124.035156 135.882812 124.871094 136.117188 C 125.707031 136.351562 126.535156 136.640625 127.351562 136.988281 C 128.167969 137.332031 128.96875 137.734375 129.757812 138.191406 C 130.546875 138.648438 131.316406 139.160156 132.066406 139.722656 C 132.820312 140.285156 133.550781 140.898438 134.257812 141.5625 C 134.96875 142.222656 135.652344 142.933594 136.3125 143.691406 C 136.972656 144.449219 137.601562 145.25 138.207031 146.09375 C 138.808594 146.9375 139.382812 147.824219 139.921875 148.746094 C 140.464844 149.667969 140.96875 150.628906 141.445312 151.621094 C 141.917969 152.613281 142.355469 153.636719 142.757812 154.6875 C 143.160156 155.742188 143.523438 156.820312 143.851562 157.921875 C 144.175781 159.027344 144.464844 160.148438 144.710938 161.292969 C 144.960938 162.433594 145.167969 163.589844 145.332031 164.761719 C 145.5 165.933594 145.625 167.113281 145.707031 168.300781 C 145.792969 169.488281 145.832031 170.679688 145.832031 171.875 Z M 145.832031 171.875 " fill-opacity="1" fill-rule="nonzero"/><path fill="#000000" d="M 281.25 171.875 C 281.25 173.070312 281.207031 174.261719 281.125 175.449219 C 281.039062 176.636719 280.914062 177.816406 280.75 178.988281 C 280.582031 180.160156 280.375 181.316406 280.128906 182.457031 C 279.882812 183.601562 279.59375 184.722656 279.269531 185.828125 C 278.941406 186.929688 278.578125 188.007812 278.175781 189.0625 C 277.773438 190.113281 277.335938 191.136719 276.859375 192.128906 C 276.386719 193.121094 275.878906 194.082031 275.339844 195.003906 C 274.796875 195.925781 274.226562 196.8125 273.621094 197.65625 C 273.019531 198.5 272.386719 199.300781 271.730469 200.058594 C 271.070312 200.816406 270.386719 201.527344 269.675781 202.1875 C 268.96875 202.851562 268.238281 203.464844 267.484375 204.027344 C 266.730469 204.589844 265.960938 205.101562 265.175781 205.558594 C 264.386719 206.015625 263.582031 206.417969 262.769531 206.761719 C 261.953125 207.109375 261.125 207.398438 260.289062 207.632812 C 259.453125 207.867188 258.609375 208.039062 257.761719 208.15625 C 256.910156 208.273438 256.0625 208.332031 255.207031 208.332031 C 254.355469 208.332031 253.503906 208.273438 252.65625 208.15625 C 251.808594 208.039062 250.964844 207.867188 250.128906 207.632812 C 249.292969 207.398438 248.464844 207.109375 247.648438 206.761719 C 246.832031 206.417969 246.03125 206.015625 245.242188 205.558594 C 244.453125 205.101562 243.683594 204.589844 242.933594 204.027344 C 242.179688 203.464844 241.449219 202.851562 240.742188 202.1875 C 240.03125 201.527344 239.347656 200.816406 238.6875 200.058594 C 238.027344 199.300781 237.398438 198.5 236.792969 197.65625 C 236.191406 196.8125 235.617188 195.925781 235.078125 195.003906 C 234.535156 194.082031 234.03125 193.121094 233.554688 192.128906 C 233.082031 191.136719 232.644531 190.113281 232.242188 189.0625 C 231.839844 188.007812 231.476562 186.929688 231.148438 185.828125 C 230.824219 184.722656 230.535156 183.601562 230.289062 182.457031 C 230.039062 181.316406 229.832031 180.160156 229.667969 178.988281 C 229.5 177.816406 229.375 176.636719 229.292969 175.449219 C 229.207031 174.261719 229.167969 173.070312 229.167969 171.875 C 229.167969 170.679688 229.207031 169.488281 229.292969 168.300781 C 229.375 167.113281 229.5 165.933594 229.667969 164.761719 C 229.832031 163.589844 230.039062 162.433594 230.289062 161.292969 C 230.535156 160.148438 230.824219 159.027344 231.148438 157.921875 C 231.476562 156.820312 231.839844 155.742188 232.242188 154.6875 C 232.644531 153.636719 233.082031 152.613281 233.554688 151.621094 C 234.03125 150.628906 234.535156 149.667969 235.078125 148.746094 C 235.617188 147.824219 236.191406 146.9375 236.792969 146.09375 C 237.398438 145.25 238.027344 144.449219 238.6875 143.691406 C 239.347656 142.933594 240.03125 142.222656 240.742188 141.5625 C 241.449219 140.898438 242.179688 140.285156 242.933594 139.722656 C 243.683594 139.160156 244.453125 138.648438 245.242188 138.191406 C 246.03125 137.734375 246.832031 137.332031 247.648438 136.988281 C 248.464844 136.640625 249.292969 136.351562 250.128906 136.117188 C 250.964844 135.882812 251.808594 135.710938 252.65625 135.59375 C 253.503906 135.476562 254.355469 135.417969 255.207031 135.417969 C 256.0625 135.417969 256.910156 135.476562 257.761719 135.59375 C 258.609375 135.710938 259.453125 135.882812 260.289062 136.117188 C 261.125 136.351562 261.953125 136.640625 262.769531 136.988281 C 263.582031 137.332031 264.386719 137.734375 265.175781 138.191406 C 265.960938 138.648438 266.730469 139.160156 267.484375 139.722656 C 268.238281 140.285156 268.96875 140.898438 269.675781 141.5625 C 270.386719 142.222656 271.070312 142.933594 271.730469 143.691406 C 272.386719 144.449219 273.019531 145.25 273.621094 146.09375 C 274.226562 146.9375 274.796875 147.824219 275.339844 148.746094 C 275.878906 149.667969 276.386719 150.628906 276.859375 151.621094 C 277.335938 152.613281 277.773438 153.636719 278.175781 154.6875 C 278.578125 155.742188 278.941406 156.820312 279.269531 157.921875 C 279.59375 159.027344 279.882812 160.148438 280.128906 161.292969 C 280.375 162.433594 280.582031 163.589844 280.75 164.761719 C 280.914062 165.933594 281.039062 167.113281 281.125 168.300781 C 281.207031 169.488281 281.25 170.679688 281.25 171.875 Z M 281.25 171.875 " fill-opacity="1" fill-rule="nonzero"/><path fill="#000000" d="M 260.417969 270.832031 L 114.582031 270.832031 C 108.832031 270.832031 104.167969 266.175781 104.167969 260.417969 C 104.167969 254.65625 108.832031 250 114.582031 250 L 260.417969 250 C 266.175781 250 270.832031 254.65625 270.832031 260.417969 C 270.832031 266.175781 266.175781 270.832031 260.417969 270.832031 Z M 260.417969 270.832031 " fill-opacity="1" fill-rule="nonzero"/></svg>