<svg xmlns="http://www.w3.org/2000/svg" xmlns:xlink="http://www.w3.org/1999/xlink" width="500" zoomAndPan="magnify" viewBox="0 0 375 374.999991" height="500" preserveAspectRatio="xMidYMid meet" version="1.0"><path fill="#69cac5" d="M 375 187.5 C 375 291.050781 291.050781 375 187.5 375 C 83.957031 375 0 291.050781 0 187.5 C 0 83.957031 83.957031 0 187.5 0 C 291.050781 0 375 83.957031 375 187.5 " fill-opacity="1" fill-rule="nonzero"/><path fill="#000000" d="M 145.832031 130.207031 C 145.832031 132.085938 145.792969 133.957031 145.707031 135.824219 C 145.625 137.691406 145.5 139.546875 145.332031 141.386719 C 145.167969 143.226562 144.960938 145.042969 144.710938 146.839844 C 144.464844 148.636719 144.175781 150.398438 143.851562 152.132812 C 143.523438 153.867188 143.160156 155.5625 142.757812 157.214844 C 142.355469 158.871094 141.917969 160.476562 141.445312 162.039062 C 140.96875 163.597656 140.464844 165.101562 139.921875 166.554688 C 139.382812 168.003906 138.808594 169.394531 138.207031 170.71875 C 137.601562 172.046875 136.972656 173.304688 136.3125 174.496094 C 135.652344 175.6875 134.96875 176.800781 134.257812 177.84375 C 133.550781 178.886719 132.820312 179.851562 132.066406 180.734375 C 131.316406 181.621094 130.546875 182.421875 129.757812 183.140625 C 128.96875 183.855469 128.167969 184.488281 127.351562 185.03125 C 126.535156 185.578125 125.707031 186.03125 124.871094 186.398438 C 124.035156 186.765625 123.191406 187.039062 122.34375 187.222656 C 121.496094 187.40625 120.644531 187.5 119.792969 187.5 C 118.9375 187.5 118.089844 187.40625 117.238281 187.222656 C 116.390625 187.039062 115.546875 186.765625 114.710938 186.398438 C 113.875 186.03125 113.046875 185.578125 112.230469 185.03125 C 111.414062 184.488281 110.613281 183.855469 109.824219 183.140625 C 109.039062 182.421875 108.269531 181.621094 107.515625 180.734375 C 106.761719 179.851562 106.03125 178.886719 105.324219 177.84375 C 104.613281 176.800781 103.929688 175.6875 103.269531 174.496094 C 102.613281 173.304688 101.980469 172.046875 101.378906 170.71875 C 100.773438 169.394531 100.203125 168.003906 99.660156 166.554688 C 99.121094 165.101562 98.613281 163.597656 98.140625 162.039062 C 97.664062 160.476562 97.226562 158.871094 96.824219 157.214844 C 96.421875 155.5625 96.058594 153.867188 95.730469 152.132812 C 95.40625 150.398438 95.117188 148.636719 94.871094 146.839844 C 94.625 145.042969 94.417969 143.226562 94.25 141.386719 C 94.085938 139.546875 93.957031 137.691406 93.875 135.824219 C 93.792969 133.957031 93.75 132.085938 93.75 130.207031 C 93.75 128.332031 93.792969 126.460938 93.875 124.59375 C 93.957031 122.726562 94.085938 120.871094 94.25 119.03125 C 94.417969 117.191406 94.625 115.371094 94.871094 113.578125 C 95.117188 111.78125 95.40625 110.015625 95.730469 108.285156 C 96.058594 106.550781 96.421875 104.855469 96.824219 103.203125 C 97.226562 101.546875 97.664062 99.9375 98.140625 98.378906 C 98.613281 96.820312 99.121094 95.3125 99.660156 93.863281 C 100.203125 92.414062 100.773438 91.023438 101.378906 89.695312 C 101.980469 88.371094 102.613281 87.113281 103.269531 85.921875 C 103.929688 84.730469 104.613281 83.613281 105.324219 82.570312 C 106.03125 81.53125 106.761719 80.566406 107.515625 79.679688 C 108.269531 78.796875 109.039062 77.996094 109.824219 77.277344 C 110.613281 76.558594 111.414062 75.929688 112.230469 75.382812 C 113.046875 74.839844 113.875 74.382812 114.710938 74.015625 C 115.546875 73.652344 116.390625 73.375 117.238281 73.191406 C 118.089844 73.007812 118.9375 72.917969 119.792969 72.917969 C 120.644531 72.917969 121.496094 73.007812 122.34375 73.191406 C 123.191406 73.375 124.035156 73.652344 124.871094 74.015625 C 125.707031 74.382812 126.535156 74.839844 127.351562 75.382812 C 128.167969 75.929688 128.96875 76.558594 129.757812 77.277344 C 130.546875 77.996094 131.316406 78.796875 132.066406 79.679688 C 132.820312 80.566406 133.550781 81.53125 134.257812 82.570312 C 134.96875 83.613281 135.652344 84.730469 136.3125 85.921875 C 136.972656 87.113281 137.601562 88.371094 138.207031 89.695312 C 138.808594 91.023438 139.382812 92.414062 139.921875 93.863281 C 140.464844 95.3125 140.96875 96.820312 141.445312 98.378906 C 141.917969 99.9375 142.355469 101.546875 142.757812 103.203125 C 143.160156 104.855469 143.523438 106.550781 143.851562 108.285156 C 144.175781 110.015625 144.464844 111.78125 144.710938 113.578125 C 144.960938 115.371094 145.167969 117.191406 145.332031 119.03125 C 145.5 120.871094 145.625 122.726562 145.707031 124.59375 C 145.792969 126.460938 145.832031 128.332031 145.832031 130.207031 Z M 145.832031 130.207031 " fill-opacity="1" fill-rule="nonzero"/><path fill="#000000" d="M 281.25 130.207031 C 281.25 132.085938 281.207031 133.957031 281.125 135.824219 C 281.039062 137.691406 280.914062 139.546875 280.75 141.386719 C 280.582031 143.226562 280.375 145.042969 280.128906 146.839844 C 279.882812 148.636719 279.59375 150.398438 279.269531 152.132812 C 278.941406 153.867188 278.578125 155.5625 278.175781 157.214844 C 277.773438 158.871094 277.335938 160.476562 276.859375 162.039062 C 276.386719 163.597656 275.878906 165.101562 275.339844 166.554688 C 274.796875 168.003906 274.226562 169.394531 273.621094 170.71875 C 273.019531 172.046875 272.386719 173.304688 271.730469 174.496094 C 271.070312 175.6875 270.386719 176.800781 269.675781 177.84375 C 268.96875 178.886719 268.238281 179.851562 267.484375 180.734375 C 266.730469 181.621094 265.960938 182.421875 265.175781 183.140625 C 264.386719 183.855469 263.582031 184.488281 262.769531 185.03125 C 261.953125 185.578125 261.125 186.03125 260.289062 186.398438 C 259.453125 186.765625 258.609375 187.039062 257.761719 187.222656 C 256.910156 187.40625 256.0625 187.5 255.207031 187.5 C 254.355469 187.5 253.503906 187.40625 252.65625 187.222656 C 251.808594 187.039062 250.964844 186.765625 250.128906 186.398438 C 249.292969 186.03125 248.464844 185.578125 247.648438 185.03125 C 246.832031 184.488281 246.03125 183.855469 245.242188 183.140625 C 244.453125 182.421875 243.683594 181.621094 242.933594 180.734375 C 242.179688 179.851562 241.449219 178.886719 240.742188 177.84375 C 240.03125 176.800781 239.347656 175.6875 238.6875 174.496094 C 238.027344 173.304688 237.398438 172.046875 236.792969 170.71875 C 236.191406 169.394531 235.617188 168.003906 235.078125 166.554688 C 234.535156 165.101562 234.03125 163.597656 233.554688 162.039062 C 233.082031 160.476562 232.644531 158.871094 232.242188 157.214844 C 231.839844 155.5625 231.476562 153.867188 231.148438 152.132812 C 230.824219 150.398438 230.535156 148.636719 230.289062 146.839844 C 230.039062 145.042969 229.832031 143.226562 229.667969 141.386719 C 229.5 139.546875 229.375 137.691406 229.292969 135.824219 C 229.207031 133.957031 229.167969 132.085938 229.167969 130.207031 C 229.167969 128.332031 229.207031 126.460938 229.292969 124.59375 C 229.375 122.726562 229.5 120.871094 229.667969 119.03125 C 229.832031 117.191406 230.039062 115.371094 230.289062 113.578125 C 230.535156 111.78125 230.824219 110.015625 231.148438 108.285156 C 231.476562 106.550781 231.839844 104.855469 232.242188 103.203125 C 232.644531 101.546875 233.082031 99.9375 233.554688 98.378906 C 234.03125 96.820312 234.535156 95.3125 235.078125 93.863281 C 235.617188 92.414062 236.191406 91.023438 236.792969 89.695312 C 237.398438 88.371094 238.027344 87.113281 238.6875 85.921875 C 239.347656 84.730469 240.03125 83.613281 240.742188 82.570312 C 241.449219 81.53125 242.179688 80.566406 242.933594 79.679688 C 243.683594 78.796875 244.453125 77.996094 245.242188 77.277344 C 246.03125 76.558594 246.832031 75.929688 247.648438 75.382812 C 248.464844 74.839844 249.292969 74.382812 250.128906 74.015625 C 250.964844 73.652344 251.808594 73.375 252.65625 73.191406 C 253.503906 73.007812 254.355469 72.917969 255.207031 72.917969 C 256.0625 72.917969 256.910156 73.007812 257.761719 73.191406 C 258.609375 73.375 259.453125 73.652344 260.289062 74.015625 C 261.125 74.382812 261.953125 74.839844 262.769531 75.382812 C 263.582031 75.929688 264.386719 76.558594 265.175781 77.277344 C 265.960938 77.996094 266.730469 78.796875 267.484375 79.679688 C 268.238281 80.566406 268.96875 81.53125 269.675781 82.570312 C 270.386719 83.613281 271.070312 84.730469 271.730469 85.921875 C 272.386719 87.113281 273.019531 88.371094 273.621094 89.695312 C 274.226562 91.023438 274.796875 92.414062 275.339844 93.863281 C 275.878906 95.3125 276.386719 96.820312 276.859375 98.378906 C 277.335938 99.9375 277.773438 101.546875 278.175781 103.203125 C 278.578125 104.855469 278.941406 106.550781 279.269531 108.285156 C 279.59375 110.015625 279.882812 111.78125 280.128906 113.578125 C 280.375 115.371094 280.582031 117.191406 280.75 119.03125 C 280.914062 120.871094 281.039062 122.726562 281.125 124.59375 C 281.207031 126.460938 281.25 128.332031 281.25 130.207031 Z M 281.25 130.207031 " fill-opacity="1" fill-rule="nonzero"/><path fill="#000000" d="M 187.5 229.167969 C 149.761719 229.167969 124.71875 224.769531 93.75 218.75 C 86.675781 217.386719 72.917969 218.75 72.917969 239.582031 C 72.917969 281.25 120.78125 333.332031 187.5 333.332031 C 254.207031 333.332031 302.082031 281.25 302.082031 239.582031 C 302.082031 218.75 288.324219 217.375 281.25 218.75 C 250.28125 224.769531 225.238281 229.167969 187.5 229.167969 Z M 187.5 229.167969 " fill-opacity="1" fill-rule="nonzero"/><path fill="#ffffff" d="M 93.75 239.582031 C 93.75 239.582031 125 250 187.5 250 C 250 250 281.25 239.582031 281.25 239.582031 C 281.25 239.582031 260.417969 281.25 187.5 281.25 C 114.582031 281.25 93.75 239.582031 93.75 239.582031 Z M 93.75 239.582031 " fill-opacity="1" fill-rule="nonzero"/></svg>