<svg xmlns="http://www.w3.org/2000/svg" xmlns:xlink="http://www.w3.org/1999/xlink" width="1500" zoomAndPan="magnify" viewBox="0 0 1125 525.000007" height="700" preserveAspectRatio="xMidYMid meet" version="1.0"><defs><clipPath id="7d2af44d7b"><path d="M 346 15.671875 L 779 15.671875 L 779 431 L 346 431 Z M 346 15.671875 " clip-rule="nonzero"/></clipPath><clipPath id="8967a27b2c"><path d="M 799 199 L 1122 199 L 1122 508.234375 L 799 508.234375 Z M 799 199 " clip-rule="nonzero"/></clipPath></defs><g clip-path="url(#7d2af44d7b)"><path fill="#ffd745" d="M 675.191406 430.160156 C 669.402344 430.160156 663.617188 428.605469 658.460938 425.671875 L 566.539062 373.339844 C 565.3125 372.640625 563.914062 372.273438 562.5 372.273438 C 561.085938 372.273438 559.691406 372.640625 558.460938 373.339844 L 466.539062 425.671875 C 461.382812 428.605469 455.597656 430.160156 449.808594 430.160156 C 439.753906 430.160156 429.910156 425.449219 423.480469 417.558594 C 417.085938 409.714844 414.605469 399.46875 416.675781 389.449219 L 438.046875 285.871094 C 438.625 283.0625 437.671875 280.121094 435.554688 278.191406 L 357.367188 206.957031 C 347.417969 197.890625 343.820312 184.308594 347.980469 171.507812 C 352.140625 158.707031 363.035156 149.832031 376.414062 148.347656 L 481.546875 136.664062 C 484.398438 136.347656 486.898438 134.527344 488.082031 131.917969 L 531.679688 35.5625 C 537.230469 23.300781 549.039062 15.683594 562.5 15.683594 C 575.964844 15.683594 587.769531 23.300781 593.320312 35.5625 L 636.917969 131.917969 C 638.097656 134.527344 640.601562 136.347656 643.449219 136.664062 L 748.582031 148.347656 C 761.960938 149.832031 772.855469 158.707031 777.015625 171.507812 C 781.175781 184.308594 777.578125 197.890625 767.628906 206.957031 L 689.445312 278.191406 C 687.324219 280.121094 686.371094 283.066406 686.949219 285.871094 L 708.324219 389.449219 C 710.390625 399.464844 707.90625 409.710938 701.515625 417.554688 C 695.085938 425.449219 685.246094 430.160156 675.191406 430.160156 Z M 675.191406 430.160156 " fill-opacity="1" fill-rule="nonzero"/></g><path fill="#ffe245" d="M 581.628906 40.851562 L 625.230469 137.203125 C 628.285156 143.957031 634.675781 148.59375 642.039062 149.414062 L 747.171875 161.101562 C 765.121094 163.09375 772.339844 185.3125 758.992188 197.472656 L 680.808594 268.710938 C 675.328125 273.703125 672.890625 281.210938 674.386719 288.464844 L 695.761719 392.042969 C 699.410156 409.730469 680.507812 423.457031 664.816406 414.523438 L 572.890625 362.191406 C 566.453125 358.527344 558.554688 358.527344 552.117188 362.191406 L 460.191406 414.523438 C 444.5 423.457031 425.597656 409.726562 429.246094 392.042969 L 450.621094 288.464844 C 452.121094 281.210938 449.675781 273.703125 444.203125 268.710938 L 366.015625 197.472656 C 352.667969 185.3125 359.890625 163.09375 377.835938 161.101562 L 482.96875 149.414062 C 490.335938 148.59375 496.722656 143.957031 499.777344 137.203125 L 543.378906 40.851562 C 550.816406 24.398438 574.183594 24.398438 581.628906 40.851562 Z M 581.628906 40.851562 " fill-opacity="1" fill-rule="nonzero"/><path fill="#ffcc14" d="M 747.167969 161.101562 L 642.035156 149.414062 C 635.339844 148.671875 629.460938 144.761719 626.152344 138.984375 C 596.722656 245.074219 525.902344 337.046875 429.359375 401.269531 C 432.433594 414.003906 447.382812 421.816406 460.191406 414.519531 L 552.113281 362.1875 C 558.554688 358.523438 566.449219 358.523438 572.890625 362.1875 L 664.8125 414.519531 C 680.507812 423.453125 699.410156 409.722656 695.757812 392.042969 L 674.386719 288.460938 C 672.886719 281.207031 675.328125 273.699219 680.804688 268.707031 L 758.988281 197.472656 C 772.339844 185.3125 765.117188 163.09375 747.167969 161.101562 Z M 747.167969 161.101562 " fill-opacity="1" fill-rule="nonzero"/><g clip-path="url(#8967a27b2c)"><path fill="#ffd745" d="M 1044.203125 508.253906 C 1039.894531 508.253906 1035.589844 507.101562 1031.75 504.917969 L 963.328125 465.964844 C 962.414062 465.445312 961.375 465.167969 960.324219 465.167969 C 959.269531 465.167969 958.230469 465.445312 957.316406 465.964844 L 888.894531 504.917969 C 885.058594 507.101562 880.753906 508.253906 876.445312 508.253906 C 868.957031 508.253906 861.632812 504.75 856.847656 498.875 C 852.089844 493.039062 850.242188 485.410156 851.78125 477.953125 L 867.6875 400.855469 C 868.121094 398.769531 867.410156 396.578125 865.832031 395.140625 L 807.636719 342.117188 C 800.230469 335.371094 797.554688 325.261719 800.652344 315.734375 C 803.75 306.207031 811.855469 299.601562 821.816406 298.496094 L 900.070312 289.796875 C 902.191406 289.5625 904.050781 288.207031 904.929688 286.265625 L 937.386719 214.546875 C 941.515625 205.417969 950.304688 199.75 960.328125 199.75 C 970.347656 199.75 979.136719 205.421875 983.265625 214.546875 L 1015.722656 286.265625 C 1016.601562 288.207031 1018.464844 289.5625 1020.582031 289.796875 L 1098.835938 298.496094 C 1108.796875 299.601562 1116.90625 306.207031 1120.003906 315.738281 C 1123.097656 325.265625 1120.421875 335.375 1113.015625 342.121094 L 1054.820312 395.144531 C 1053.242188 396.582031 1052.53125 398.773438 1052.960938 400.859375 L 1068.871094 477.957031 C 1070.410156 485.414062 1068.558594 493.039062 1063.800781 498.878906 C 1059.015625 504.75 1051.6875 508.253906 1044.203125 508.253906 Z M 1044.203125 508.253906 " fill-opacity="1" fill-rule="nonzero"/></g><path fill="#ffe245" d="M 974.5625 218.480469 L 1007.015625 290.199219 C 1009.289062 295.226562 1014.046875 298.679688 1019.527344 299.285156 L 1097.78125 307.984375 C 1111.140625 309.46875 1116.515625 326.007812 1106.582031 335.058594 L 1048.386719 388.082031 C 1044.308594 391.792969 1042.492188 397.382812 1043.605469 402.785156 L 1059.515625 479.882812 C 1062.230469 493.046875 1048.160156 503.265625 1036.480469 496.613281 L 968.058594 457.664062 C 963.265625 454.933594 957.386719 454.933594 952.59375 457.664062 L 884.171875 496.613281 C 872.492188 503.265625 858.421875 493.042969 861.136719 479.882812 L 877.046875 402.785156 C 878.160156 397.386719 876.34375 391.796875 872.265625 388.082031 L 814.074219 335.058594 C 804.136719 326.007812 809.511719 309.46875 822.871094 307.984375 L 901.125 299.285156 C 906.605469 298.675781 911.363281 295.222656 913.636719 290.199219 L 946.089844 218.480469 C 951.628906 206.234375 969.023438 206.234375 974.5625 218.480469 Z M 974.5625 218.480469 " fill-opacity="1" fill-rule="nonzero"/><path fill="#ffcc14" d="M 1097.78125 307.988281 L 1019.527344 299.289062 C 1014.542969 298.734375 1010.167969 295.828125 1007.703125 291.527344 C 985.796875 370.492188 933.085938 438.949219 861.222656 486.753906 C 863.511719 496.230469 874.640625 502.042969 884.171875 496.617188 L 952.59375 457.667969 C 957.386719 454.9375 963.265625 454.9375 968.058594 457.667969 L 1036.480469 496.617188 C 1048.160156 503.269531 1062.230469 493.046875 1059.515625 479.886719 L 1043.605469 402.789062 C 1042.492188 397.390625 1044.308594 391.800781 1048.386719 388.082031 L 1106.582031 335.0625 C 1116.515625 326.007812 1111.140625 309.46875 1097.78125 307.988281 Z M 1097.78125 307.988281 " fill-opacity="1" fill-rule="nonzero"/><path fill="#ffd745" d="M 248.554688 506.972656 C 244.242188 506.972656 239.9375 505.816406 236.101562 503.632812 L 167.679688 464.683594 C 166.765625 464.160156 165.726562 463.886719 164.671875 463.886719 C 163.621094 463.886719 162.582031 464.160156 161.667969 464.683594 L 93.25 503.632812 C 89.410156 505.820312 85.105469 506.972656 80.796875 506.972656 C 73.3125 506.972656 65.984375 503.464844 61.203125 497.59375 C 56.445312 491.753906 54.59375 484.128906 56.132812 476.671875 L 72.042969 399.574219 C 72.472656 397.484375 71.761719 395.292969 70.183594 393.859375 L 11.988281 340.835938 C 4.582031 334.089844 1.90625 323.976562 5.003906 314.453125 C 8.101562 304.925781 16.210938 298.320312 26.167969 297.214844 L 104.417969 288.511719 C 106.539062 288.277344 108.398438 286.921875 109.277344 284.980469 L 141.734375 213.261719 C 145.863281 204.132812 154.652344 198.464844 164.671875 198.464844 C 174.695312 198.464844 183.484375 204.136719 187.613281 213.261719 L 220.070312 284.980469 C 220.949219 286.921875 222.8125 288.277344 224.929688 288.511719 L 303.183594 297.210938 C 313.144531 298.316406 321.25 304.921875 324.347656 314.453125 C 327.445312 323.976562 324.769531 334.089844 317.359375 340.835938 L 259.167969 393.859375 C 257.589844 395.292969 256.878906 397.484375 257.308594 399.574219 L 273.214844 476.671875 C 274.757812 484.128906 272.90625 491.75 268.148438 497.59375 C 263.363281 503.464844 256.035156 506.972656 248.554688 506.972656 Z M 248.554688 506.972656 " fill-opacity="1" fill-rule="nonzero"/><path fill="#ffe245" d="M 178.914062 217.199219 L 211.367188 288.917969 C 213.640625 293.941406 218.394531 297.394531 223.878906 298.003906 L 302.132812 306.699219 C 315.492188 308.183594 320.867188 324.722656 310.929688 333.777344 L 252.734375 386.796875 C 248.660156 390.511719 246.84375 396.101562 247.957031 401.503906 L 263.867188 478.601562 C 266.582031 491.761719 252.511719 501.984375 240.828125 495.332031 L 172.40625 456.378906 C 167.613281 453.652344 161.738281 453.652344 156.945312 456.378906 L 88.523438 495.332031 C 76.839844 501.984375 62.769531 491.761719 65.488281 478.601562 L 81.394531 401.503906 C 82.511719 396.101562 80.695312 390.515625 76.617188 386.796875 L 18.421875 333.777344 C 8.488281 324.722656 13.863281 308.1875 27.222656 306.699219 L 105.476562 298.003906 C 110.957031 297.394531 115.710938 293.9375 117.984375 288.917969 L 150.441406 217.199219 C 155.976562 204.953125 173.371094 204.953125 178.914062 217.199219 Z M 178.914062 217.199219 " fill-opacity="1" fill-rule="nonzero"/><path fill="#ffcc14" d="M 302.128906 306.703125 L 223.875 298.007812 C 218.890625 297.453125 214.515625 294.542969 212.050781 290.242188 C 190.144531 369.207031 137.433594 437.664062 65.570312 485.46875 C 67.859375 494.949219 78.984375 500.761719 88.519531 495.335938 L 156.941406 456.382812 C 161.734375 453.65625 167.613281 453.65625 172.40625 456.382812 L 240.828125 495.335938 C 252.507812 501.984375 266.578125 491.761719 263.863281 478.601562 L 247.953125 401.507812 C 246.839844 396.105469 248.65625 390.515625 252.734375 386.800781 L 310.925781 333.777344 C 320.863281 324.722656 315.488281 308.1875 302.128906 306.703125 Z M 302.128906 306.703125 " fill-opacity="1" fill-rule="nonzero"/></svg>