<svg xmlns="http://www.w3.org/2000/svg" xmlns:xlink="http://www.w3.org/1999/xlink" width="500" zoomAndPan="magnify" viewBox="0 0 375 374.999991" height="500" preserveAspectRatio="xMidYMid meet" version="1.0"><path fill="#ed1d24" d="M 187.457031 374.9375 C 189.582031 374.9375 191.695312 374.890625 193.808594 374.820312 L 181.097656 374.820312 C 183.210938 374.890625 185.324219 374.9375 187.457031 374.9375 " fill-opacity="1" fill-rule="nonzero"/><path fill="#ed1d24" d="M 12.507812 119.917969 C 4.414062 140.875 -0.0390625 163.644531 -0.0390625 187.457031 C -0.0390625 211.222656 4.398438 233.953125 12.464844 254.878906 L 362.433594 254.878906 C 370.5 233.953125 374.9375 211.222656 374.9375 187.457031 C 374.9375 163.644531 370.488281 140.875 362.394531 119.917969 L 12.507812 119.917969 " fill-opacity="1" fill-rule="nonzero"/><path fill="#100f0d" d="M 187.457031 -0.0390625 C 107.71875 -0.0390625 39.617188 49.742188 12.507812 119.917969 L 362.394531 119.917969 C 335.285156 49.742188 267.183594 -0.0390625 187.457031 -0.0390625 " fill-opacity="1" fill-rule="nonzero"/><path fill="#f7ed08" d="M 181.097656 374.820312 L 193.808594 374.820312 C 270.828125 372.25 336.074219 323.230469 362.433594 254.878906 L 12.464844 254.878906 C 38.824219 323.230469 104.074219 372.25 181.097656 374.820312 " fill-opacity="1" fill-rule="nonzero"/></svg>