<svg xmlns="http://www.w3.org/2000/svg" xmlns:xlink="http://www.w3.org/1999/xlink" width="500" zoomAndPan="magnify" viewBox="0 0 375 374.999991" height="500" preserveAspectRatio="xMidYMid meet" version="1.0"><path fill="#ffffff" d="M 187.5 0 C 183.074219 0 178.648438 0.15625 174.238281 0.46875 C 168 0.914062 161.789062 1.664062 155.628906 2.726562 C 149.46875 3.792969 143.367188 5.160156 137.34375 6.835938 C 131.320312 8.503906 125.382812 10.476562 119.558594 12.742188 C 113.730469 15.007812 108.019531 17.5625 102.449219 20.398438 C 96.878906 23.234375 91.453125 26.347656 86.191406 29.726562 C 80.933594 33.101562 75.84375 36.742188 70.945312 40.625 C 66.050781 44.511719 61.351562 48.640625 56.867188 52.996094 C 52.382812 57.351562 48.121094 61.929688 44.089844 66.710938 C 40.0625 71.492188 36.277344 76.472656 32.75 81.628906 C 29.21875 86.789062 25.949219 92.121094 22.953125 97.609375 C 19.953125 103.09375 17.234375 108.726562 14.800781 114.484375 C 12.367188 120.242188 10.222656 126.117188 8.375 132.089844 C 6.527344 138.0625 4.980469 144.125 3.738281 150.25 C 2.496094 156.375 1.5625 162.5625 0.9375 168.78125 C 0.3125 175 0 181.25 0 187.5 C 0 191.925781 0.15625 196.347656 0.46875 200.761719 C 0.910156 207 1.664062 213.210938 2.726562 219.371094 C 3.789062 225.53125 5.160156 231.632812 6.832031 237.65625 C 8.503906 243.679688 10.476562 249.617188 12.742188 255.441406 C 15.007812 261.269531 17.5625 266.980469 20.398438 272.550781 C 23.234375 278.121094 26.34375 283.546875 29.722656 288.808594 C 33.101562 294.066406 36.738281 299.15625 40.625 304.050781 C 44.511719 308.949219 48.640625 313.648438 52.996094 318.132812 C 57.351562 322.617188 61.925781 326.878906 66.707031 330.910156 C 71.488281 334.9375 76.46875 338.722656 81.628906 342.25 C 86.789062 345.78125 92.121094 349.050781 97.609375 352.046875 C 103.09375 355.046875 108.726562 357.765625 114.484375 360.199219 C 120.242188 362.632812 126.117188 364.777344 132.089844 366.625 C 138.0625 368.472656 144.121094 370.019531 150.25 371.261719 C 156.375 372.503906 162.558594 373.4375 168.78125 374.0625 C 175 374.6875 181.246094 375 187.5 375 C 191.921875 375 196.347656 374.84375 200.761719 374.53125 C 206.996094 374.085938 213.207031 373.332031 219.367188 372.269531 C 225.527344 371.210938 231.632812 369.839844 237.65625 368.167969 C 243.679688 366.496094 249.613281 364.523438 255.441406 362.257812 C 261.265625 359.992188 266.976562 357.4375 272.546875 354.601562 C 278.121094 351.765625 283.546875 348.652344 288.808594 345.277344 C 294.066406 341.898438 299.15625 338.257812 304.050781 334.375 C 308.949219 330.488281 313.648438 326.359375 318.128906 322.003906 C 322.617188 317.648438 326.878906 313.074219 330.90625 308.292969 C 334.933594 303.507812 338.71875 298.53125 342.25 293.371094 C 345.777344 288.210938 349.050781 282.878906 352.046875 277.390625 C 355.042969 271.90625 357.761719 266.273438 360.199219 260.515625 C 362.632812 254.757812 364.777344 248.882812 366.625 242.910156 C 368.472656 236.9375 370.019531 230.878906 371.261719 224.75 C 372.503906 218.625 373.4375 212.4375 374.0625 206.21875 C 374.6875 200 375 193.75 375 187.5 C 375 183.074219 374.84375 178.652344 374.53125 174.238281 C 374.085938 168 373.335938 161.792969 372.273438 155.632812 C 371.207031 149.472656 369.839844 143.367188 368.167969 137.34375 C 366.492188 131.320312 364.519531 125.386719 362.253906 119.558594 C 359.992188 113.734375 357.4375 108.023438 354.601562 102.453125 C 351.765625 96.878906 348.652344 91.453125 345.273438 86.191406 C 341.898438 80.933594 338.257812 75.84375 334.375 70.949219 C 330.488281 66.050781 326.359375 61.351562 322.003906 56.871094 C 317.648438 52.382812 313.070312 48.121094 308.289062 44.089844 C 303.507812 40.066406 298.527344 36.28125 293.371094 32.75 C 288.210938 29.222656 282.875 25.949219 277.390625 22.953125 C 271.90625 19.957031 266.273438 17.238281 260.515625 14.800781 C 254.757812 12.367188 248.878906 10.222656 242.90625 8.375 C 236.9375 6.527344 230.875 4.980469 224.75 3.738281 C 218.625 2.496094 212.4375 1.5625 206.21875 0.9375 C 200 0.3125 193.75 0 187.5 0 Z M 187.5 0 " fill-opacity="1" fill-rule="nonzero"/><path fill="#ff0000" d="M 187.5 0 C 183.074219 0 178.648438 0.15625 174.238281 0.46875 C 170.480469 0.8125 166.730469 1.265625 163 1.832031 L 163 150.15625 L 3.761719 150.15625 C 3.753906 150.1875 3.746094 150.21875 3.738281 150.25 C 2.496094 156.378906 1.5625 162.5625 0.9375 168.78125 C 0.3125 175 0 181.25 0 187.5 C 0 191.925781 0.15625 196.351562 0.46875 200.765625 C 0.910156 207 1.664062 213.210938 2.726562 219.371094 C 3.25 221.957031 3.828125 224.53125 4.460938 227.09375 L 163 227.09375 L 163 373.191406 C 164.921875 373.511719 166.851562 373.804688 168.78125 374.0625 C 175 374.6875 181.246094 375 187.5 375 C 191.925781 375 196.347656 374.84375 200.761719 374.53125 C 204.398438 374.195312 208.023438 373.753906 211.632812 373.210938 L 211.632812 227.09375 L 370.664062 227.09375 C 370.867188 226.3125 371.066406 225.535156 371.261719 224.75 C 372.503906 218.625 373.4375 212.4375 374.0625 206.21875 C 374.6875 200 375 193.75 375 187.5 C 375 183.074219 374.84375 178.652344 374.53125 174.238281 C 374.089844 168 373.335938 161.792969 372.273438 155.632812 C 371.890625 153.800781 371.480469 151.976562 371.042969 150.15625 L 211.632812 150.15625 L 211.632812 1.757812 C 209.832031 1.457031 208.027344 1.183594 206.21875 0.9375 C 200 0.3125 193.75 0 187.5 0 Z M 308.910156 44.667969 L 228.390625 123.644531 L 256.820312 123.644531 L 324.136719 59.296875 C 323.433594 58.484375 322.722656 57.671875 322.003906 56.871094 C 317.835938 52.597656 313.464844 48.523438 308.910156 44.667969 Z M 51.519531 58.738281 C 48.96875 61.320312 46.492188 63.980469 44.089844 66.710938 C 41.757812 69.597656 39.511719 72.550781 37.355469 75.570312 L 87.65625 123.644531 L 119.433594 123.644531 Z M 146.242188 253.597656 L 116.570312 253.597656 L 51.199219 316.082031 C 51.792969 316.769531 52.390625 317.453125 52.996094 318.128906 C 57.339844 322.605469 61.910156 326.859375 66.679688 330.878906 Z M 255.414062 253.597656 L 322.296875 317.53125 C 325.269531 314.546875 328.140625 311.464844 330.90625 308.289062 C 332.863281 305.847656 334.753906 303.359375 336.585938 300.820312 L 287.175781 253.597656 Z M 255.414062 253.597656 " fill-opacity="1" fill-rule="nonzero"/><path fill="#000080" d="M 228.304688 4.644531 L 228.304688 107.132812 L 300.734375 38.347656 C 298.324219 36.421875 295.871094 34.554688 293.371094 32.75 C 288.210938 29.222656 282.875 25.949219 277.390625 22.953125 C 271.90625 19.957031 266.273438 17.238281 260.515625 14.800781 C 254.757812 12.367188 248.878906 10.222656 242.90625 8.375 C 238.09375 6.9375 233.222656 5.691406 228.304688 4.644531 Z M 146.128906 4.863281 C 143.183594 5.449219 140.253906 6.105469 137.34375 6.835938 C 131.320312 8.503906 125.382812 10.476562 119.558594 12.742188 C 113.730469 15.007812 108.019531 17.5625 102.449219 20.398438 C 96.878906 23.234375 91.453125 26.347656 86.191406 29.726562 C 81.972656 32.492188 77.867188 35.425781 73.886719 38.523438 L 146.128906 107.132812 Z M 342.371094 82.132812 L 298.917969 123.589844 L 363.59375 123.589844 C 363.164062 122.242188 362.71875 120.898438 362.253906 119.558594 C 359.992188 113.734375 357.4375 108.023438 354.601562 102.453125 C 351.765625 96.878906 348.652344 91.453125 345.273438 86.191406 C 344.324219 84.828125 343.355469 83.472656 342.371094 82.132812 Z M 32.167969 82.574219 C 28.863281 87.4375 25.789062 92.453125 22.953125 97.609375 C 19.953125 103.09375 17.234375 108.726562 14.800781 114.484375 C 13.613281 117.492188 12.503906 120.527344 11.476562 123.589844 L 75.15625 123.589844 Z M 12.003906 253.230469 C 12.246094 253.96875 12.492188 254.707031 12.742188 255.441406 C 15.007812 261.269531 17.5625 266.980469 20.398438 272.550781 C 23.234375 278.121094 26.34375 283.546875 29.722656 288.808594 C 30.800781 290.363281 31.902344 291.902344 33.027344 293.425781 L 75.15625 253.230469 Z M 298.917969 253.230469 L 341.722656 294.0625 C 341.898438 293.832031 342.074219 293.601562 342.25 293.371094 C 345.777344 288.210938 349.050781 282.878906 352.046875 277.390625 C 355.042969 271.90625 357.761719 266.273438 360.199219 260.515625 C 361.132812 258.105469 362.019531 255.675781 362.859375 253.230469 Z M 146.128906 268.683594 L 74.429688 336.777344 C 76.785156 338.660156 79.183594 340.484375 81.628906 342.25 C 86.789062 345.78125 92.121094 349.050781 97.609375 352.046875 C 103.09375 355.046875 108.726562 357.765625 114.484375 360.199219 C 120.242188 362.632812 126.117188 364.777344 132.089844 366.625 C 136.722656 368 141.40625 369.195312 146.128906 370.210938 Z M 228.304688 268.683594 L 228.304688 370.265625 C 231.4375 369.644531 234.558594 368.945312 237.65625 368.167969 C 243.679688 366.496094 249.613281 364.523438 255.441406 362.257812 C 261.265625 359.992188 266.976562 357.4375 272.546875 354.601562 C 278.121094 351.765625 283.546875 348.652344 288.808594 345.277344 C 292.738281 342.683594 296.574219 339.941406 300.300781 337.058594 Z M 228.304688 268.683594 " fill-opacity="1" fill-rule="evenodd"/></svg>