<svg xmlns="http://www.w3.org/2000/svg" xmlns:xlink="http://www.w3.org/1999/xlink" width="500" zoomAndPan="magnify" viewBox="0 0 375 374.999991" height="500" preserveAspectRatio="xMidYMid meet" version="1.0"><path fill="#ededed" d="M 250.015625 10.667969 L 250.015625 364.332031 C 230.476562 371.257812 209.449219 375 187.5 375 C 165.550781 375 144.523438 371.257812 124.984375 364.332031 L 124.984375 10.667969 C 144.574219 3.742188 165.601562 0 187.5 0 C 209.398438 0 230.476562 3.742188 250.015625 10.667969 Z M 250.015625 10.667969 " fill-opacity="1" fill-rule="nonzero"/><path fill="#f4263f" d="M 375 187.5 C 375 200.320312 373.71875 212.886719 371.257812 224.988281 C 369.511719 233.554688 367.203125 241.914062 364.332031 249.964844 C 345.511719 303.25 303.304688 345.460938 250.015625 364.28125 L 250.015625 10.667969 C 303.304688 29.488281 345.511719 71.75 364.332031 124.984375 C 367.203125 133.085938 369.511719 141.445312 371.257812 149.957031 C 373.71875 162.113281 375 174.679688 375 187.5 Z M 375 187.5 " fill-opacity="1" fill-rule="nonzero"/><path fill="#001aa0" d="M 124.984375 10.667969 L 124.984375 364.332031 C 71.75 345.511719 29.488281 303.304688 10.667969 250.015625 C 7.796875 241.914062 5.488281 233.554688 3.742188 225.039062 C 1.28125 212.886719 0 200.371094 0 187.5 C 0 174.679688 1.28125 162.113281 3.742188 150.011719 C 5.488281 141.445312 7.796875 133.085938 10.667969 125.035156 C 29.488281 71.75 71.75 29.488281 124.984375 10.667969 Z M 124.984375 10.667969 " fill-opacity="1" fill-rule="nonzero"/></svg>