<svg xmlns="http://www.w3.org/2000/svg" xmlns:xlink="http://www.w3.org/1999/xlink" width="500" zoomAndPan="magnify" viewBox="0 0 375 374.999991" height="500" preserveAspectRatio="xMidYMid meet" version="1.0"><path fill="#055eb0" d="M 375 187.5 C 375 291.054688 291.054688 375 187.5 375 C 83.945312 375 0 291.054688 0 187.5 C 0 83.945312 83.945312 0 187.5 0 C 291.054688 0 375 83.945312 375 187.5 Z M 375 187.5 " fill-opacity="1" fill-rule="evenodd"/><path fill="#ffffff" d="M 10.660156 125 C 15.871094 110.269531 22.867188 96.394531 31.414062 83.578125 L 85.9375 83.578125 L 85.9375 29.867188 C 98.753906 21.605469 112.628906 14.851562 127.359375 9.847656 L 127.359375 83.578125 L 210.9375 83.578125 L 210.9375 125 L 127.359375 125 L 127.359375 210.164062 L 373.65625 210.164062 C 371.90625 224.527344 368.570312 238.402344 363.769531 251.546875 L 11.230469 251.546875 C 6.429688 238.402344 3.09375 224.527344 1.34375 210.164062 L 85.9375 210.164062 L 85.9375 125 Z M 305.054688 41.421875 C 319.703125 53.222656 332.519531 67.179688 343.058594 82.804688 L 210.9375 82.804688 L 210.9375 41.421875 Z M 364.625 125.773438 C 369.222656 138.957031 372.355469 152.832031 373.902344 167.195312 L 210.9375 167.195312 L 210.9375 125.773438 Z M 33.527344 294.515625 L 341.472656 294.515625 C 330.527344 310.261719 317.21875 324.21875 302.082031 335.9375 L 72.917969 335.9375 C 57.78125 324.21875 44.472656 310.261719 33.527344 294.515625 Z M 33.527344 294.515625 " fill-opacity="1" fill-rule="evenodd"/></svg>