<svg xmlns="http://www.w3.org/2000/svg" xmlns:xlink="http://www.w3.org/1999/xlink" width="500" zoomAndPan="magnify" viewBox="0 0 375 374.999991" height="500" preserveAspectRatio="xMidYMid meet" version="1.0"><defs><clipPath id="3d3d580951"><path d="M 187.5 0 C 83.945312 0 0 83.945312 0 187.5 C 0 291.054688 83.945312 375 187.5 375 C 291.054688 375 375 291.054688 375 187.5 C 375 83.945312 291.054688 0 187.5 0 Z M 187.5 0 " clip-rule="nonzero"/></clipPath><clipPath id="a0b7fc386e"><path d="M 115.113281 88 L 259.863281 88 L 259.863281 288 L 115.113281 288 Z M 115.113281 88 " clip-rule="nonzero"/></clipPath></defs><g clip-path="url(#3d3d580951)"><rect x="-37.5" width="450" fill="#ffc273" y="-37.499999" height="449.999989" fill-opacity="1"/></g><g clip-path="url(#a0b7fc386e)"><path fill="#000000" d="M 259.566406 273.800781 C 256.667969 267.832031 253.511719 262.003906 250.09375 256.328125 C 249.460938 255.265625 248.324219 255.1875 247.46875 255.636719 C 247.046875 255.558594 246.632812 255.480469 246.214844 255.382812 C 245.761719 253.960938 245.328125 252.542969 244.875 251.109375 C 244.707031 250.554688 244.355469 250.183594 243.9375 249.957031 C 243.710938 249.730469 243.445312 249.554688 243.101562 249.511719 C 242.648438 249.425781 242.214844 249.363281 241.761719 249.277344 C 240.535156 209.003906 241.246094 168.550781 241.296875 128.277344 C 241.296875 126 241.644531 123.453125 241.355469 121.210938 C 240.703125 116.382812 235.628906 114.316406 231.164062 115.347656 C 223.789062 98.625 206.9375 89.804688 189.054688 88.289062 C 179.113281 87.464844 168.300781 88.359375 159.90625 94.25 C 152.472656 99.460938 147.769531 107.441406 143.394531 115.203125 C 139.332031 114.621094 134.730469 116.488281 134.035156 120.804688 C 133.78125 122.3125 134.035156 124.039062 134.035156 125.566406 C 134.070312 134.726562 134.035156 143.875 134.007812 153.019531 C 133.941406 178.722656 133.820312 204.414062 133.691406 230.121094 C 133.652344 236.503906 133.730469 242.898438 133.566406 249.277344 C 133.132812 249.363281 132.679688 249.425781 132.242188 249.511719 C 131.925781 249.554688 131.644531 249.730469 131.417969 249.957031 C 131 250.171875 130.644531 250.539062 130.46875 251.109375 C 130.023438 252.542969 129.582031 253.960938 129.128906 255.382812 C 128.710938 255.480469 128.296875 255.558594 127.875 255.636719 C 127.027344 255.1875 125.902344 255.265625 125.246094 256.328125 C 121.832031 262.003906 118.679688 267.832031 115.789062 273.800781 C 115.5 274.382812 115.519531 274.941406 115.699219 275.421875 C 115.898438 278.167969 115.964844 280.90625 115.886719 283.644531 C 115.089844 284.804688 115.609375 286.835938 117.433594 286.875 C 157.886719 287.722656 198.515625 286.1875 238.980469 285.835938 C 245.140625 285.796875 251.3125 285.601562 257.46875 285.71875 C 258.058594 285.734375 258.492188 285.53125 258.808594 285.226562 C 259.210938 284.910156 259.488281 284.417969 259.457031 283.730469 C 259.378906 280.957031 259.449219 278.195312 259.644531 275.421875 C 259.832031 274.941406 259.84375 274.382812 259.566406 273.800781 " fill-opacity="1" fill-rule="nonzero"/><path fill="#000000" d="M 237.726562 247.792969 C 237.726562 247.726562 237.765625 247.675781 237.765625 247.613281 C 237.699219 242.9375 237.738281 238.253906 237.707031 233.578125 C 237.578125 210.214844 237.472656 186.859375 237.390625 163.507812 C 237.363281 153.511719 237.335938 143.519531 237.324219 133.539062 C 237.324219 129.203125 239.671875 117.375 232.109375 119.210938 C 231.40625 120.460938 229.003906 120.628906 228.34375 118.8125 C 221.960938 101.523438 204.34375 93.027344 186.816406 92.125 C 177.386719 91.632812 167.453125 92.820312 159.996094 99.15625 C 154.089844 104.199219 150.207031 111.179688 146.453125 117.867188 C 146.300781 118.957031 145.378906 119.902344 144.0625 119.449219 C 135.09375 116.410156 138.019531 132.003906 138.019531 136.605469 C 137.964844 173.589844 138.664062 210.707031 137.597656 247.675781 C 137.597656 247.714844 137.625 247.742188 137.625 247.792969 C 137.6875 251.644531 137.753906 255.492188 137.832031 259.34375 C 171.058594 259.285156 204.292969 259.0625 237.523438 259.003906 C 237.589844 255.265625 237.65625 251.53125 237.726562 247.792969 Z M 244.492188 267.125 C 244.492188 267.085938 244.492188 267.046875 244.492188 267.023438 C 244.480469 266.996094 244.46875 266.984375 244.453125 266.957031 C 243.140625 262.335938 241.828125 257.707031 240.519531 253.089844 C 240.480469 253.074219 240.449219 253.074219 240.410156 253.074219 C 240.371094 255.480469 240.332031 257.878906 240.28125 260.292969 C 240.269531 261.273438 239.421875 261.703125 238.664062 261.597656 C 238.464844 261.714844 238.25 261.792969 237.976562 261.792969 C 204.304688 261.851562 170.644531 262.070312 136.96875 262.128906 C 136.414062 262.128906 136.058594 261.851562 135.84375 261.488281 C 135.410156 261.292969 135.082031 260.902344 135.0625 260.292969 C 135.023438 257.878906 134.972656 255.480469 134.933594 253.074219 C 134.894531 253.074219 134.867188 253.074219 134.828125 253.089844 C 133.527344 257.664062 132.226562 262.234375 130.933594 266.808594 C 168.773438 266.917969 206.632812 267.023438 244.492188 267.125 Z M 244.492188 272.277344 C 244.492188 271.226562 244.492188 270.164062 244.492188 269.117188 C 206.609375 269.011719 168.734375 268.90625 130.855469 268.804688 C 130.855469 270.074219 130.855469 271.332031 130.855469 272.609375 C 168.734375 272.570312 206.609375 272.316406 244.492188 272.277344 Z M 255.484375 281.714844 C 255.472656 280.25 255.511719 278.792969 255.582031 277.332031 C 249.667969 277.398438 243.761719 277.503906 237.855469 277.585938 C 213.402344 277.929688 188.941406 278.261719 164.472656 278.511719 C 153.597656 278.636719 142.722656 278.738281 131.832031 278.777344 C 127.964844 278.792969 123.792969 279.175781 119.847656 278.871094 C 119.882812 280.222656 119.882812 281.566406 119.859375 282.921875 C 125.210938 282.960938 130.585938 282.828125 135.941406 282.769531 C 175.730469 282.441406 215.695312 280.957031 255.484375 281.714844 Z M 255.683594 275.105469 C 255.683594 275.066406 255.699219 275.027344 255.710938 274.96875 C 253.15625 269.757812 250.398438 264.648438 247.429688 259.660156 C 247.328125 259.648438 247.210938 259.632812 247.101562 259.613281 C 246.453125 259.484375 245.800781 259.355469 245.152344 259.230469 C 245.820312 261.558594 246.480469 263.890625 247.140625 266.210938 C 247.152344 266.25 247.140625 266.289062 247.140625 266.335938 C 247.222656 266.503906 247.273438 266.703125 247.273438 266.929688 C 247.273438 269.023438 247.273438 271.125 247.273438 273.230469 C 247.273438 273.308594 247.234375 273.367188 247.234375 273.433594 C 247.339844 274.203125 246.914062 275.066406 245.921875 275.066406 C 207.125 275.105469 168.328125 275.355469 129.519531 275.394531 C 128.546875 275.394531 128.125 274.585938 128.203125 273.828125 C 128.125 273.660156 128.074219 273.457031 128.074219 273.230469 C 128.074219 271.125 128.074219 269.023438 128.074219 266.929688 C 128.074219 266.703125 128.125 266.503906 128.203125 266.335938 C 128.203125 266.289062 128.191406 266.25 128.203125 266.210938 C 128.863281 263.890625 129.53125 261.558594 130.191406 259.230469 C 129.542969 259.355469 128.890625 259.484375 128.242188 259.613281 C 128.140625 259.632812 128.03125 259.613281 127.925781 259.632812 C 124.957031 264.628906 122.1875 269.746094 119.632812 274.96875 C 119.644531 275.027344 119.660156 275.066406 119.660156 275.105469 C 119.695312 275.699219 119.710938 276.296875 119.753906 276.90625 C 125.132812 277.449219 131.476562 276.800781 136.867188 276.761719 C 176.472656 276.535156 216.066406 275.777344 255.671875 275.34375 C 255.683594 275.265625 255.683594 275.183594 255.683594 275.105469 Z M 259.566406 273.800781 C 259.84375 274.382812 259.832031 274.941406 259.644531 275.421875 C 259.449219 278.195312 259.378906 280.957031 259.457031 283.730469 C 259.488281 284.417969 259.210938 284.910156 258.808594 285.226562 C 258.492188 285.53125 258.058594 285.734375 257.46875 285.71875 C 251.3125 285.601562 245.140625 285.796875 238.980469 285.835938 C 198.515625 286.1875 157.886719 287.722656 117.433594 286.875 C 115.609375 286.835938 115.089844 284.804688 115.886719 283.644531 C 115.964844 280.90625 115.898438 278.167969 115.699219 275.421875 C 115.519531 274.941406 115.5 274.382812 115.789062 273.800781 C 118.679688 267.832031 121.832031 262.003906 125.246094 256.328125 C 125.902344 255.265625 127.027344 255.1875 127.875 255.636719 C 128.296875 255.558594 128.710938 255.480469 129.128906 255.382812 C 129.582031 253.960938 130.023438 252.542969 130.46875 251.109375 C 130.644531 250.539062 131 250.171875 131.417969 249.957031 C 131.644531 249.730469 131.925781 249.554688 132.242188 249.511719 C 132.679688 249.425781 133.132812 249.363281 133.566406 249.277344 C 133.730469 242.898438 133.652344 236.503906 133.691406 230.121094 C 133.820312 204.414062 133.941406 178.722656 134.007812 153.019531 C 134.035156 143.875 134.070312 134.726562 134.035156 125.566406 C 134.035156 124.039062 133.78125 122.3125 134.035156 120.804688 C 134.730469 116.488281 139.332031 114.621094 143.394531 115.203125 C 147.769531 107.441406 152.472656 99.460938 159.90625 94.25 C 168.300781 88.359375 179.113281 87.464844 189.054688 88.289062 C 206.9375 89.804688 223.789062 98.625 231.164062 115.347656 C 235.628906 114.316406 240.703125 116.382812 241.355469 121.210938 C 241.644531 123.453125 241.296875 126 241.296875 128.277344 C 241.246094 168.550781 240.535156 209.003906 241.761719 249.277344 C 242.214844 249.363281 242.648438 249.425781 243.101562 249.511719 C 243.445312 249.554688 243.710938 249.730469 243.9375 249.957031 C 244.355469 250.183594 244.707031 250.554688 244.875 251.109375 C 245.328125 252.542969 245.761719 253.960938 246.214844 255.382812 C 246.632812 255.480469 247.046875 255.558594 247.46875 255.636719 C 248.324219 255.1875 249.460938 255.265625 250.09375 256.328125 C 253.511719 262.003906 256.667969 267.832031 259.566406 273.800781 " fill-opacity="1" fill-rule="nonzero"/></g><path fill="#a5a5a5" d="M 255.710938 274.96875 C 255.699219 275.027344 255.683594 275.066406 255.683594 275.105469 C 255.683594 275.183594 255.683594 275.265625 255.671875 275.34375 C 216.066406 275.777344 176.472656 276.535156 136.867188 276.761719 C 131.476562 276.800781 125.132812 277.449219 119.753906 276.90625 C 119.710938 276.296875 119.695312 275.699219 119.660156 275.105469 C 119.660156 275.066406 119.644531 275.027344 119.632812 274.96875 C 122.1875 269.746094 124.957031 264.628906 127.925781 259.632812 C 128.03125 259.613281 128.140625 259.632812 128.242188 259.613281 C 128.890625 259.484375 129.542969 259.355469 130.191406 259.230469 C 129.53125 261.558594 128.863281 263.890625 128.203125 266.210938 C 128.191406 266.25 128.203125 266.289062 128.203125 266.335938 C 128.125 266.503906 128.074219 266.703125 128.074219 266.929688 C 128.074219 269.023438 128.074219 271.125 128.074219 273.230469 C 128.074219 273.457031 128.125 273.660156 128.203125 273.828125 C 128.125 274.585938 128.546875 275.394531 129.519531 275.394531 C 168.328125 275.355469 207.125 275.105469 245.921875 275.066406 C 246.914062 275.066406 247.339844 274.203125 247.234375 273.433594 C 247.234375 273.367188 247.273438 273.308594 247.273438 273.230469 C 247.273438 271.125 247.273438 269.023438 247.273438 266.929688 C 247.273438 266.703125 247.222656 266.503906 247.140625 266.335938 C 247.140625 266.289062 247.152344 266.25 247.140625 266.210938 C 246.480469 263.890625 245.820312 261.558594 245.152344 259.230469 C 245.800781 259.355469 246.453125 259.484375 247.101562 259.613281 C 247.210938 259.632812 247.328125 259.648438 247.429688 259.660156 C 250.398438 264.648438 253.15625 269.757812 255.710938 274.96875 " fill-opacity="1" fill-rule="nonzero"/><path fill="#7c7c82" d="M 255.582031 277.332031 C 255.511719 278.792969 255.472656 280.25 255.484375 281.714844 C 215.695312 280.957031 175.730469 282.441406 135.941406 282.769531 C 130.585938 282.828125 125.210938 282.960938 119.859375 282.921875 C 119.882812 281.566406 119.882812 280.222656 119.847656 278.871094 C 123.792969 279.175781 127.964844 278.792969 131.832031 278.777344 C 142.722656 278.738281 153.597656 278.636719 164.472656 278.511719 C 188.941406 278.261719 213.402344 277.929688 237.855469 277.585938 C 243.761719 277.503906 249.667969 277.398438 255.582031 277.332031 " fill-opacity="1" fill-rule="nonzero"/><path fill="#7c7c82" d="M 244.492188 269.117188 C 244.492188 270.164062 244.492188 271.226562 244.492188 272.277344 C 206.609375 272.316406 168.734375 272.570312 130.855469 272.609375 C 130.855469 271.332031 130.855469 270.074219 130.855469 268.804688 C 168.734375 268.90625 206.609375 269.011719 244.492188 269.117188 " fill-opacity="1" fill-rule="nonzero"/><path fill="#a5a5a5" d="M 244.492188 267.023438 C 244.492188 267.046875 244.492188 267.085938 244.492188 267.125 C 206.632812 267.023438 168.773438 266.917969 130.933594 266.808594 C 132.226562 262.234375 133.527344 257.664062 134.828125 253.089844 C 134.867188 253.074219 134.894531 253.074219 134.933594 253.074219 C 134.972656 255.480469 135.023438 257.878906 135.0625 260.292969 C 135.082031 260.902344 135.410156 261.292969 135.84375 261.488281 C 136.058594 261.851562 136.414062 262.128906 136.96875 262.128906 C 170.644531 262.070312 204.304688 261.851562 237.976562 261.792969 C 238.25 261.792969 238.464844 261.714844 238.664062 261.597656 C 239.421875 261.703125 240.269531 261.273438 240.28125 260.292969 C 240.332031 257.878906 240.371094 255.480469 240.410156 253.074219 C 240.449219 253.074219 240.480469 253.074219 240.519531 253.089844 C 241.828125 257.707031 243.140625 262.335938 244.453125 266.957031 C 244.46875 266.984375 244.480469 266.996094 244.492188 267.023438 " fill-opacity="1" fill-rule="nonzero"/><path fill="#7c7c82" d="M 237.765625 247.613281 C 237.765625 247.675781 237.726562 247.726562 237.726562 247.792969 C 237.65625 251.53125 237.589844 255.265625 237.523438 259.003906 C 204.292969 259.0625 171.058594 259.285156 137.832031 259.34375 C 137.753906 255.492188 137.6875 251.644531 137.625 247.792969 C 137.625 247.742188 137.597656 247.714844 137.597656 247.675781 C 138.664062 210.707031 137.964844 173.589844 138.019531 136.605469 C 138.019531 132.003906 135.09375 116.410156 144.0625 119.449219 C 145.378906 119.902344 146.300781 118.957031 146.453125 117.867188 C 150.207031 111.179688 154.089844 104.199219 159.996094 99.15625 C 167.453125 92.820312 177.386719 91.632812 186.816406 92.125 C 204.34375 93.027344 221.960938 101.523438 228.34375 118.8125 C 229.003906 120.628906 231.40625 120.460938 232.109375 119.210938 C 239.671875 117.375 237.324219 129.203125 237.324219 133.539062 C 237.335938 143.519531 237.363281 153.511719 237.390625 163.507812 C 237.472656 186.859375 237.578125 210.214844 237.707031 233.578125 C 237.738281 238.253906 237.699219 242.9375 237.765625 247.613281 " fill-opacity="1" fill-rule="nonzero"/></svg>