<svg xmlns="http://www.w3.org/2000/svg" xmlns:xlink="http://www.w3.org/1999/xlink" width="500" zoomAndPan="magnify" viewBox="0 0 375 374.999991" height="500" preserveAspectRatio="xMidYMid meet" version="1.0"><path fill="#f1f1f1" d="M 187.5 4.253906 C 109.0625 4.253906 41.992188 53.730469 15.761719 123.113281 L 187.605469 141.5 L 359.226562 123.113281 C 333.003906 53.738281 265.9375 4.253906 187.5 4.253906 Z M 187.5 4.253906 " fill-opacity="1" fill-rule="nonzero"/><path fill="#e90000" d="M 187.5 371.453125 C 265.9375 371.453125 333.003906 321.972656 359.234375 252.59375 L 187.5 240.335938 L 15.765625 252.59375 C 41.992188 321.96875 109.0625 371.453125 187.5 371.453125 Z M 187.5 371.453125 " fill-opacity="1" fill-rule="nonzero"/><path fill="#0000d2" d="M 361.355469 129.113281 C 360.675781 127.101562 359.976562 125.097656 359.226562 123.117188 L 15.761719 123.117188 C 0.117188 163.417969 0.117188 212.289062 15.761719 252.589844 C 15.761719 252.589844 359.226562 252.589844 359.226562 252.589844 C 374.0625 214.390625 374.921875 167.804688 361.355469 129.113281 Z M 361.355469 129.113281 " fill-opacity="1" fill-rule="nonzero"/></svg>