<svg xmlns="http://www.w3.org/2000/svg" xmlns:xlink="http://www.w3.org/1999/xlink" width="500" zoomAndPan="magnify" viewBox="0 0 375 374.999991" height="500" preserveAspectRatio="xMidYMid meet" version="1.0"><path fill="#ffffff" d="M 217.527344 57.933594 C 213.71875 59.617188 210.570312 62.476562 208.960938 65.40625 C 208.375 66.578125 190.722656 118.796875 169.703125 181.492188 C 134.765625 285.863281 131.542969 295.898438 131.542969 300.292969 C 131.542969 303.660156 132.054688 305.933594 133.152344 308.054688 C 135.132812 311.9375 140.476562 316.625 144.140625 317.722656 C 152.855469 320.359375 162.378906 316.625 166.257812 309.082031 C 166.917969 307.691406 184.714844 254.808594 205.808594 191.601562 C 241.992188 82.910156 244.042969 76.539062 243.601562 73.023438 C 242.945312 68.113281 240.964844 64.453125 237.011719 61.011719 C 231.589844 56.25 223.902344 55.003906 217.527344 57.933594 Z M 217.527344 57.933594 " fill-opacity="1" fill-rule="nonzero"/><path fill="#ffffff" d="M 85.691406 114.332031 C 80.933594 116.453125 22.707031 174.683594 20.582031 179.441406 C 18.53125 183.910156 18.53125 191.089844 20.582031 195.554688 C 21.679688 198.046875 29.589844 206.394531 52.222656 229.027344 C 85.472656 262.28125 85.765625 262.574219 94.1875 262.5 C 102.097656 262.425781 109.058594 257.445312 111.621094 249.902344 C 113.085938 245.652344 113.085938 242.945312 111.621094 237.964844 C 110.523438 234.226562 109.203125 232.761719 87.304688 210.71875 L 64.160156 187.5 L 86.570312 164.941406 C 101.441406 150 109.496094 141.355469 110.59375 139.160156 C 112.644531 135.132812 112.867188 128.394531 111.035156 124.144531 C 109.421875 120.335938 105.175781 115.941406 101.441406 114.183594 C 97.410156 112.28125 90.015625 112.351562 85.691406 114.332031 Z M 85.691406 114.332031 " fill-opacity="1" fill-rule="nonzero"/><path fill="#ffffff" d="M 273.558594 114.183594 C 269.824219 115.941406 265.574219 120.335938 263.964844 124.144531 C 262.132812 128.394531 262.351562 135.132812 264.402344 139.160156 C 265.503906 141.355469 273.558594 150 288.425781 164.941406 L 310.839844 187.5 L 287.695312 210.71875 C 265.796875 232.761719 264.476562 234.226562 263.378906 237.964844 C 261.914062 242.945312 261.914062 245.800781 263.304688 249.828125 C 266.746094 259.496094 276.414062 264.625 286.082031 261.839844 C 290.332031 260.667969 290.84375 260.230469 321.824219 229.394531 C 342.773438 208.519531 353.613281 197.167969 354.566406 195.191406 C 356.25 191.527344 356.394531 184.128906 354.859375 180.320312 C 353.320312 176.585938 293.042969 116.089844 288.941406 114.183594 C 284.984375 112.351562 277.515625 112.351562 273.558594 114.183594 Z M 273.558594 114.183594 " fill-opacity="1" fill-rule="nonzero"/></svg>