<svg xmlns="http://www.w3.org/2000/svg" xmlns:xlink="http://www.w3.org/1999/xlink" width="500" zoomAndPan="magnify" viewBox="0 0 375 374.999991" height="500" preserveAspectRatio="xMidYMid meet" version="1.0"><defs><clipPath id="7fb8258a13"><path d="M 23 297 L 353 297 L 353 354.136719 L 23 354.136719 Z M 23 297 " clip-rule="nonzero"/></clipPath><clipPath id="403339c8b8"><path d="M 108 21.136719 L 146 21.136719 L 146 59 L 108 59 Z M 108 21.136719 " clip-rule="nonzero"/></clipPath><clipPath id="196dbf506c"><path d="M 230 21.136719 L 268 21.136719 L 268 59 L 230 59 Z M 230 21.136719 " clip-rule="nonzero"/></clipPath></defs><path fill="#f4900c" d="M 148.605469 179.644531 L 72.128906 81.902344 L 33.789062 179.644531 Z M 148.605469 179.644531 " fill-opacity="1" fill-rule="nonzero"/><path fill="#f4900c" d="M 187.375 60.664062 L 119.773438 188.390625 L 254.972656 188.390625 Z M 187.375 60.664062 " fill-opacity="1" fill-rule="nonzero"/><path fill="#f4900c" d="M 227.425781 179.644531 L 303.898438 81.902344 L 342.238281 179.644531 Z M 227.425781 179.644531 " fill-opacity="1" fill-rule="nonzero"/><path fill="#ffcc4d" d="M 297.914062 160.210938 L 248.65625 39.929688 L 188.085938 160.222656 L 188.015625 160.253906 L 187.941406 160.210938 L 127.375 39.921875 L 78.113281 160.210938 C 45.832031 115.292969 15.785156 86.519531 15.785156 86.519531 C 15.785156 86.519531 33.5 217.535156 33.5 343.828125 L 342.527344 343.828125 C 342.527344 217.535156 360.246094 86.519531 360.246094 86.519531 C 360.246094 86.519531 330.199219 115.292969 297.914062 160.210938 Z M 297.914062 160.210938 " fill-opacity="1" fill-rule="nonzero"/><path fill="#5c913b" d="M 225.5625 230.421875 C 225.5625 231.667969 225.5 232.910156 225.378906 234.148438 C 225.257812 235.386719 225.074219 236.617188 224.832031 237.839844 C 224.589844 239.058594 224.289062 240.265625 223.925781 241.457031 C 223.566406 242.648438 223.144531 243.820312 222.671875 244.972656 C 222.195312 246.121094 221.664062 247.246094 221.074219 248.34375 C 220.488281 249.441406 219.851562 250.507812 219.160156 251.546875 C 218.46875 252.582031 217.726562 253.578125 216.9375 254.542969 C 216.148438 255.503906 215.316406 256.425781 214.433594 257.304688 C 213.554688 258.1875 212.632812 259.023438 211.671875 259.8125 C 210.710938 260.601562 209.710938 261.34375 208.679688 262.035156 C 207.644531 262.726562 206.578125 263.367188 205.480469 263.953125 C 204.382812 264.539062 203.257812 265.070312 202.109375 265.546875 C 200.960938 266.023438 199.789062 266.445312 198.601562 266.804688 C 197.410156 267.167969 196.203125 267.46875 194.984375 267.710938 C 193.761719 267.957031 192.535156 268.136719 191.296875 268.261719 C 190.058594 268.382812 188.816406 268.441406 187.570312 268.441406 C 186.328125 268.441406 185.085938 268.382812 183.847656 268.261719 C 182.609375 268.136719 181.382812 267.957031 180.160156 267.710938 C 178.941406 267.46875 177.734375 267.167969 176.542969 266.804688 C 175.355469 266.445312 174.183594 266.023438 173.035156 265.546875 C 171.882812 265.070312 170.761719 264.539062 169.664062 263.953125 C 168.566406 263.367188 167.5 262.726562 166.464844 262.035156 C 165.429688 261.34375 164.433594 260.601562 163.472656 259.8125 C 162.511719 259.023438 161.589844 258.1875 160.710938 257.304688 C 159.828125 256.425781 158.996094 255.503906 158.207031 254.542969 C 157.417969 253.578125 156.675781 252.582031 155.984375 251.546875 C 155.292969 250.507812 154.65625 249.441406 154.066406 248.34375 C 153.480469 247.246094 152.949219 246.121094 152.472656 244.972656 C 152 243.820312 151.578125 242.648438 151.21875 241.457031 C 150.855469 240.265625 150.554688 239.058594 150.3125 237.839844 C 150.070312 236.617188 149.886719 235.386719 149.765625 234.148438 C 149.644531 232.910156 149.582031 231.667969 149.582031 230.421875 C 149.582031 229.175781 149.644531 227.933594 149.765625 226.695312 C 149.886719 225.457031 150.070312 224.226562 150.3125 223.003906 C 150.554688 221.78125 150.855469 220.574219 151.21875 219.382812 C 151.578125 218.191406 152 217.019531 152.472656 215.871094 C 152.949219 214.71875 153.480469 213.597656 154.066406 212.496094 C 154.65625 211.398438 155.292969 210.332031 155.984375 209.296875 C 156.675781 208.261719 157.417969 207.261719 158.207031 206.300781 C 158.996094 205.335938 159.828125 204.417969 160.710938 203.535156 C 161.589844 202.65625 162.511719 201.820312 163.472656 201.03125 C 164.433594 200.238281 165.433594 199.5 166.464844 198.808594 C 167.5 198.117188 168.566406 197.476562 169.664062 196.890625 C 170.761719 196.300781 171.882812 195.769531 173.035156 195.292969 C 174.183594 194.816406 175.355469 194.398438 176.542969 194.035156 C 177.734375 193.675781 178.941406 193.371094 180.160156 193.128906 C 181.382812 192.886719 182.609375 192.703125 183.847656 192.582031 C 185.085938 192.460938 186.328125 192.398438 187.570312 192.398438 C 188.816406 192.398438 190.058594 192.460938 191.296875 192.582031 C 192.535156 192.703125 193.761719 192.886719 194.984375 193.128906 C 196.203125 193.371094 197.410156 193.675781 198.601562 194.035156 C 199.789062 194.398438 200.960938 194.816406 202.109375 195.292969 C 203.257812 195.769531 204.382812 196.300781 205.480469 196.890625 C 206.578125 197.476562 207.644531 198.117188 208.679688 198.808594 C 209.710938 199.5 210.710938 200.238281 211.671875 201.03125 C 212.632812 201.820312 213.554688 202.65625 214.433594 203.535156 C 215.316406 204.417969 216.148438 205.335938 216.9375 206.300781 C 217.726562 207.261719 218.46875 208.261719 219.160156 209.296875 C 219.851562 210.332031 220.488281 211.398438 221.074219 212.496094 C 221.664062 213.597656 222.195312 214.71875 222.671875 215.871094 C 223.144531 217.019531 223.566406 218.191406 223.925781 219.382812 C 224.289062 220.574219 224.589844 221.78125 224.832031 223.003906 C 225.074219 224.226562 225.257812 225.457031 225.378906 226.695312 C 225.5 227.933594 225.5625 229.175781 225.5625 230.421875 Z M 225.5625 230.421875 " fill-opacity="1" fill-rule="nonzero"/><path fill="#981ceb" d="M 300.039062 230.421875 C 300.039062 231.234375 299.996094 232.046875 299.917969 232.859375 C 299.835938 233.667969 299.71875 234.472656 299.558594 235.273438 C 299.402344 236.070312 299.203125 236.859375 298.96875 237.640625 C 298.730469 238.417969 298.457031 239.183594 298.144531 239.9375 C 297.835938 240.691406 297.488281 241.425781 297.101562 242.144531 C 296.71875 242.863281 296.300781 243.558594 295.851562 244.238281 C 295.398438 244.914062 294.914062 245.566406 294.398438 246.195312 C 293.882812 246.824219 293.335938 247.429688 292.761719 248.003906 C 292.183594 248.582031 291.582031 249.125 290.953125 249.644531 C 290.324219 250.160156 289.671875 250.644531 288.996094 251.097656 C 288.320312 251.550781 287.621094 251.96875 286.902344 252.351562 C 286.1875 252.734375 285.453125 253.082031 284.699219 253.394531 C 283.949219 253.707031 283.183594 253.980469 282.402344 254.21875 C 281.625 254.453125 280.835938 254.652344 280.039062 254.808594 C 279.242188 254.96875 278.4375 255.089844 277.625 255.167969 C 276.816406 255.246094 276.003906 255.289062 275.191406 255.289062 C 274.378906 255.289062 273.566406 255.246094 272.757812 255.167969 C 271.945312 255.089844 271.140625 254.96875 270.34375 254.808594 C 269.546875 254.652344 268.757812 254.453125 267.980469 254.21875 C 267.199219 253.980469 266.433594 253.707031 265.683594 253.394531 C 264.929688 253.082031 264.195312 252.734375 263.480469 252.351562 C 262.761719 251.96875 262.066406 251.550781 261.386719 251.097656 C 260.710938 250.644531 260.058594 250.160156 259.429688 249.644531 C 258.800781 249.125 258.199219 248.582031 257.621094 248.003906 C 257.046875 247.429688 256.5 246.824219 255.984375 246.195312 C 255.46875 245.566406 254.984375 244.914062 254.53125 244.238281 C 254.082031 243.558594 253.664062 242.863281 253.28125 242.144531 C 252.894531 241.425781 252.546875 240.691406 252.238281 239.9375 C 251.925781 239.183594 251.652344 238.417969 251.414062 237.640625 C 251.179688 236.859375 250.980469 236.070312 250.824219 235.273438 C 250.664062 234.472656 250.546875 233.667969 250.464844 232.859375 C 250.386719 232.046875 250.347656 231.234375 250.347656 230.421875 C 250.347656 229.605469 250.386719 228.792969 250.464844 227.984375 C 250.546875 227.171875 250.664062 226.367188 250.824219 225.570312 C 250.980469 224.769531 251.179688 223.980469 251.414062 223.203125 C 251.652344 222.421875 251.925781 221.65625 252.238281 220.90625 C 252.546875 220.152344 252.894531 219.417969 253.28125 218.699219 C 253.664062 217.980469 254.082031 217.28125 254.53125 216.605469 C 254.984375 215.929688 255.46875 215.277344 255.984375 214.644531 C 256.5 214.015625 257.046875 213.414062 257.621094 212.835938 C 258.199219 212.261719 258.800781 211.714844 259.429688 211.199219 C 260.058594 210.683594 260.710938 210.199219 261.386719 209.746094 C 262.066406 209.292969 262.761719 208.875 263.480469 208.492188 C 264.195312 208.105469 264.929688 207.757812 265.683594 207.449219 C 266.433594 207.136719 267.199219 206.863281 267.980469 206.625 C 268.757812 206.390625 269.546875 206.191406 270.34375 206.03125 C 271.140625 205.875 271.945312 205.753906 272.757812 205.675781 C 273.566406 205.59375 274.378906 205.554688 275.191406 205.554688 C 276.003906 205.554688 276.816406 205.59375 277.625 205.675781 C 278.4375 205.753906 279.242188 205.875 280.039062 206.03125 C 280.835938 206.191406 281.625 206.390625 282.402344 206.625 C 283.183594 206.863281 283.949219 207.136719 284.699219 207.449219 C 285.453125 207.757812 286.1875 208.105469 286.902344 208.492188 C 287.621094 208.875 288.320312 209.292969 288.996094 209.746094 C 289.671875 210.199219 290.324219 210.683594 290.953125 211.199219 C 291.582031 211.714844 292.183594 212.261719 292.761719 212.835938 C 293.335938 213.414062 293.882812 214.015625 294.398438 214.644531 C 294.914062 215.277344 295.398438 215.929688 295.851562 216.605469 C 296.300781 217.28125 296.71875 217.980469 297.101562 218.699219 C 297.488281 219.417969 297.835938 220.152344 298.144531 220.90625 C 298.457031 221.65625 298.730469 222.421875 298.96875 223.203125 C 299.203125 223.980469 299.402344 224.769531 299.558594 225.570312 C 299.71875 226.367188 299.835938 227.171875 299.917969 227.984375 C 299.996094 228.792969 300.039062 229.605469 300.039062 230.421875 Z M 300.039062 230.421875 " fill-opacity="1" fill-rule="nonzero"/><path fill="#dd2e44" d="M 361.460938 230.421875 C 361.460938 231.089844 361.429688 231.761719 361.363281 232.429688 C 361.296875 233.09375 361.199219 233.757812 361.066406 234.414062 C 360.9375 235.074219 360.773438 235.722656 360.582031 236.363281 C 360.386719 237.007812 360.160156 237.636719 359.902344 238.257812 C 359.648438 238.875 359.363281 239.480469 359.046875 240.074219 C 358.730469 240.664062 358.386719 241.238281 358.015625 241.796875 C 357.640625 242.355469 357.242188 242.890625 356.816406 243.410156 C 356.394531 243.929688 355.941406 244.425781 355.46875 244.898438 C 354.996094 245.375 354.5 245.824219 353.980469 246.25 C 353.464844 246.675781 352.925781 247.074219 352.371094 247.445312 C 351.8125 247.816406 351.238281 248.164062 350.648438 248.476562 C 350.054688 248.792969 349.453125 249.082031 348.832031 249.335938 C 348.214844 249.59375 347.582031 249.820312 346.941406 250.015625 C 346.300781 250.210938 345.652344 250.371094 344.996094 250.503906 C 344.335938 250.632812 343.675781 250.730469 343.007812 250.796875 C 342.34375 250.863281 341.675781 250.894531 341.003906 250.894531 C 340.332031 250.894531 339.664062 250.863281 339 250.796875 C 338.332031 250.730469 337.667969 250.632812 337.011719 250.503906 C 336.355469 250.371094 335.707031 250.210938 335.066406 250.015625 C 334.425781 249.820312 333.792969 249.59375 333.175781 249.335938 C 332.554688 249.082031 331.949219 248.792969 331.359375 248.476562 C 330.769531 248.164062 330.195312 247.816406 329.636719 247.445312 C 329.082031 247.074219 328.542969 246.675781 328.027344 246.25 C 327.507812 245.824219 327.011719 245.375 326.539062 244.898438 C 326.0625 244.425781 325.613281 243.929688 325.191406 243.410156 C 324.765625 242.890625 324.367188 242.355469 323.992188 241.796875 C 323.621094 241.238281 323.277344 240.664062 322.960938 240.074219 C 322.644531 239.480469 322.359375 238.875 322.105469 238.257812 C 321.847656 237.636719 321.621094 237.007812 321.425781 236.363281 C 321.234375 235.722656 321.070312 235.074219 320.9375 234.414062 C 320.808594 233.757812 320.710938 233.09375 320.644531 232.429688 C 320.578125 231.761719 320.546875 231.089844 320.546875 230.421875 C 320.546875 229.75 320.578125 229.082031 320.644531 228.414062 C 320.710938 227.746094 320.808594 227.085938 320.9375 226.425781 C 321.070312 225.769531 321.234375 225.121094 321.425781 224.476562 C 321.621094 223.835938 321.847656 223.207031 322.105469 222.585938 C 322.359375 221.964844 322.644531 221.359375 322.960938 220.769531 C 323.277344 220.179688 323.621094 219.601562 323.992188 219.046875 C 324.367188 218.488281 324.765625 217.949219 325.191406 217.433594 C 325.613281 216.914062 326.0625 216.417969 326.539062 215.941406 C 327.011719 215.46875 327.507812 215.019531 328.027344 214.59375 C 328.542969 214.167969 329.082031 213.769531 329.636719 213.398438 C 330.195312 213.023438 330.769531 212.679688 331.359375 212.363281 C 331.949219 212.046875 332.554688 211.761719 333.175781 211.503906 C 333.792969 211.25 334.425781 211.023438 335.066406 210.828125 C 335.707031 210.632812 336.355469 210.46875 337.011719 210.339844 C 337.671875 210.207031 338.332031 210.109375 339 210.042969 C 339.664062 209.980469 340.332031 209.945312 341.003906 209.945312 C 341.675781 209.945312 342.34375 209.980469 343.007812 210.042969 C 343.675781 210.109375 344.335938 210.207031 344.996094 210.339844 C 345.652344 210.46875 346.300781 210.632812 346.941406 210.828125 C 347.582031 211.023438 348.214844 211.25 348.832031 211.503906 C 349.453125 211.761719 350.054688 212.046875 350.648438 212.363281 C 351.238281 212.679688 351.8125 213.023438 352.371094 213.398438 C 352.925781 213.769531 353.464844 214.167969 353.980469 214.59375 C 354.5 215.019531 354.996094 215.46875 355.46875 215.941406 C 355.941406 216.417969 356.394531 216.914062 356.816406 217.433594 C 357.242188 217.949219 357.640625 218.488281 358.011719 219.046875 C 358.386719 219.601562 358.730469 220.179688 359.046875 220.769531 C 359.363281 221.359375 359.648438 221.964844 359.902344 222.585938 C 360.160156 223.207031 360.386719 223.835938 360.582031 224.476562 C 360.773438 225.121094 360.9375 225.769531 361.066406 226.425781 C 361.199219 227.085938 361.296875 227.746094 361.363281 228.414062 C 361.429688 229.082031 361.460938 229.75 361.460938 230.421875 Z M 361.460938 230.421875 " fill-opacity="1" fill-rule="nonzero"/><path fill="#981ceb" d="M 124.789062 230.421875 C 124.789062 231.234375 124.75 232.046875 124.667969 232.859375 C 124.589844 233.667969 124.46875 234.472656 124.3125 235.273438 C 124.152344 236.070312 123.953125 236.859375 123.71875 237.640625 C 123.480469 238.417969 123.207031 239.183594 122.898438 239.9375 C 122.585938 240.691406 122.238281 241.425781 121.855469 242.144531 C 121.472656 242.863281 121.054688 243.558594 120.601562 244.238281 C 120.148438 244.914062 119.664062 245.566406 119.148438 246.195312 C 118.632812 246.824219 118.085938 247.429688 117.511719 248.003906 C 116.9375 248.582031 116.332031 249.125 115.703125 249.644531 C 115.074219 250.160156 114.421875 250.644531 113.746094 251.097656 C 113.070312 251.550781 112.371094 251.96875 111.65625 252.351562 C 110.9375 252.734375 110.203125 253.082031 109.449219 253.394531 C 108.699219 253.707031 107.933594 253.980469 107.15625 254.21875 C 106.375 254.453125 105.585938 254.652344 104.789062 254.808594 C 103.992188 254.96875 103.1875 255.089844 102.378906 255.167969 C 101.566406 255.246094 100.757812 255.289062 99.941406 255.289062 C 99.128906 255.289062 98.316406 255.246094 97.507812 255.167969 C 96.699219 255.089844 95.894531 254.96875 95.09375 254.808594 C 94.296875 254.652344 93.507812 254.453125 92.730469 254.21875 C 91.953125 253.980469 91.1875 253.707031 90.433594 253.394531 C 89.683594 253.082031 88.949219 252.734375 88.230469 252.351562 C 87.511719 251.96875 86.816406 251.550781 86.140625 251.097656 C 85.460938 250.644531 84.808594 250.160156 84.179688 249.644531 C 83.550781 249.125 82.949219 248.582031 82.375 248.003906 C 81.796875 247.429688 81.253906 246.824219 80.738281 246.195312 C 80.21875 245.566406 79.734375 244.914062 79.285156 244.238281 C 78.832031 243.558594 78.414062 242.863281 78.03125 242.144531 C 77.648438 241.425781 77.300781 240.691406 76.988281 239.9375 C 76.675781 239.183594 76.402344 238.417969 76.167969 237.640625 C 75.929688 236.859375 75.734375 236.070312 75.574219 235.273438 C 75.414062 234.472656 75.296875 233.667969 75.214844 232.859375 C 75.136719 232.046875 75.097656 231.234375 75.097656 230.421875 C 75.097656 229.605469 75.136719 228.792969 75.214844 227.984375 C 75.296875 227.171875 75.414062 226.367188 75.574219 225.570312 C 75.734375 224.769531 75.929688 223.980469 76.167969 223.203125 C 76.402344 222.421875 76.675781 221.65625 76.988281 220.90625 C 77.300781 220.152344 77.648438 219.417969 78.03125 218.699219 C 78.414062 217.980469 78.832031 217.28125 79.285156 216.605469 C 79.734375 215.929688 80.21875 215.277344 80.738281 214.644531 C 81.253906 214.015625 81.796875 213.414062 82.375 212.835938 C 82.949219 212.261719 83.550781 211.714844 84.179688 211.199219 C 84.808594 210.683594 85.460938 210.199219 86.140625 209.746094 C 86.816406 209.292969 87.511719 208.875 88.230469 208.492188 C 88.949219 208.105469 89.683594 207.757812 90.433594 207.449219 C 91.1875 207.136719 91.953125 206.863281 92.730469 206.625 C 93.507812 206.390625 94.296875 206.191406 95.09375 206.03125 C 95.894531 205.875 96.699219 205.753906 97.507812 205.675781 C 98.316406 205.59375 99.128906 205.554688 99.941406 205.554688 C 100.757812 205.554688 101.566406 205.59375 102.378906 205.675781 C 103.1875 205.753906 103.992188 205.875 104.789062 206.03125 C 105.585938 206.191406 106.375 206.390625 107.15625 206.625 C 107.933594 206.863281 108.699219 207.136719 109.449219 207.449219 C 110.203125 207.757812 110.9375 208.105469 111.65625 208.492188 C 112.371094 208.875 113.070312 209.292969 113.746094 209.746094 C 114.421875 210.199219 115.074219 210.683594 115.703125 211.199219 C 116.332031 211.714844 116.9375 212.261719 117.511719 212.835938 C 118.085938 213.414062 118.632812 214.015625 119.148438 214.644531 C 119.664062 215.277344 120.148438 215.929688 120.601562 216.605469 C 121.054688 217.28125 121.472656 217.980469 121.855469 218.699219 C 122.238281 219.417969 122.585938 220.152344 122.898438 220.90625 C 123.207031 221.65625 123.480469 222.421875 123.71875 223.203125 C 123.953125 223.980469 124.152344 224.769531 124.3125 225.570312 C 124.46875 226.367188 124.589844 227.171875 124.667969 227.984375 C 124.75 228.792969 124.789062 229.605469 124.789062 230.421875 Z M 124.789062 230.421875 " fill-opacity="1" fill-rule="nonzero"/><path fill="#dd2e44" d="M 54.585938 230.421875 C 54.585938 231.089844 54.554688 231.761719 54.488281 232.429688 C 54.421875 233.09375 54.324219 233.757812 54.195312 234.414062 C 54.0625 235.074219 53.902344 235.722656 53.707031 236.363281 C 53.511719 237.007812 53.285156 237.636719 53.03125 238.257812 C 52.773438 238.875 52.488281 239.480469 52.171875 240.074219 C 51.855469 240.664062 51.511719 241.238281 51.140625 241.796875 C 50.769531 242.355469 50.367188 242.890625 49.945312 243.410156 C 49.519531 243.929688 49.070312 244.425781 48.597656 244.898438 C 48.121094 245.375 47.625 245.824219 47.109375 246.25 C 46.589844 246.675781 46.054688 247.074219 45.496094 247.445312 C 44.9375 247.816406 44.363281 248.164062 43.773438 248.476562 C 43.183594 248.792969 42.578125 249.082031 41.957031 249.335938 C 41.339844 249.59375 40.710938 249.820312 40.070312 250.015625 C 39.425781 250.210938 38.777344 250.371094 38.121094 250.503906 C 37.464844 250.632812 36.800781 250.730469 36.136719 250.796875 C 35.46875 250.863281 34.800781 250.894531 34.128906 250.894531 C 33.460938 250.894531 32.792969 250.863281 32.125 250.796875 C 31.457031 250.730469 30.796875 250.632812 30.140625 250.503906 C 29.480469 250.371094 28.832031 250.210938 28.191406 250.015625 C 27.550781 249.820312 26.921875 249.59375 26.300781 249.335938 C 25.683594 249.082031 25.078125 248.792969 24.488281 248.476562 C 23.894531 248.164062 23.320312 247.816406 22.765625 247.445312 C 22.207031 247.074219 21.667969 246.675781 21.152344 246.25 C 20.632812 245.824219 20.136719 245.375 19.664062 244.898438 C 19.191406 244.425781 18.742188 243.929688 18.316406 243.410156 C 17.890625 242.890625 17.492188 242.355469 17.121094 241.796875 C 16.746094 241.238281 16.402344 240.664062 16.089844 240.074219 C 15.773438 239.480469 15.484375 238.875 15.230469 238.257812 C 14.972656 237.636719 14.746094 237.007812 14.554688 236.363281 C 14.359375 235.722656 14.195312 235.074219 14.066406 234.414062 C 13.933594 233.757812 13.835938 233.09375 13.769531 232.429688 C 13.707031 231.761719 13.671875 231.089844 13.671875 230.421875 C 13.671875 229.75 13.707031 229.082031 13.769531 228.414062 C 13.835938 227.746094 13.933594 227.085938 14.066406 226.425781 C 14.195312 225.769531 14.359375 225.121094 14.554688 224.476562 C 14.746094 223.835938 14.972656 223.207031 15.230469 222.585938 C 15.484375 221.964844 15.773438 221.359375 16.089844 220.769531 C 16.402344 220.179688 16.746094 219.601562 17.121094 219.046875 C 17.492188 218.488281 17.890625 217.949219 18.316406 217.433594 C 18.742188 216.914062 19.191406 216.417969 19.664062 215.941406 C 20.136719 215.46875 20.632812 215.019531 21.152344 214.59375 C 21.667969 214.167969 22.207031 213.769531 22.765625 213.398438 C 23.320312 213.023438 23.894531 212.679688 24.488281 212.363281 C 25.078125 212.046875 25.683594 211.761719 26.300781 211.503906 C 26.921875 211.25 27.550781 211.023438 28.191406 210.828125 C 28.832031 210.632812 29.480469 210.46875 30.140625 210.339844 C 30.796875 210.207031 31.457031 210.109375 32.125 210.042969 C 32.792969 209.980469 33.460938 209.945312 34.128906 209.945312 C 34.800781 209.945312 35.46875 209.980469 36.136719 210.042969 C 36.800781 210.109375 37.464844 210.207031 38.121094 210.339844 C 38.777344 210.46875 39.425781 210.632812 40.070312 210.828125 C 40.710938 211.023438 41.339844 211.25 41.957031 211.503906 C 42.578125 211.761719 43.183594 212.046875 43.773438 212.363281 C 44.363281 212.679688 44.9375 213.023438 45.496094 213.398438 C 46.054688 213.769531 46.589844 214.167969 47.109375 214.59375 C 47.625 215.019531 48.121094 215.46875 48.597656 215.941406 C 49.070312 216.417969 49.519531 216.914062 49.945312 217.433594 C 50.367188 217.949219 50.769531 218.488281 51.140625 219.046875 C 51.511719 219.601562 51.855469 220.179688 52.171875 220.769531 C 52.488281 221.359375 52.773438 221.964844 53.03125 222.585938 C 53.285156 223.207031 53.511719 223.835938 53.707031 224.476562 C 53.902344 225.121094 54.0625 225.769531 54.195312 226.425781 C 54.324219 227.085938 54.421875 227.746094 54.488281 228.414062 C 54.554688 229.082031 54.585938 229.75 54.585938 230.421875 Z M 54.585938 230.421875 " fill-opacity="1" fill-rule="nonzero"/><g clip-path="url(#7fb8258a13)"><path fill="#ffac33" d="M 342.527344 354.136719 L 33.5 354.136719 C 27.816406 354.136719 23.199219 349.527344 23.199219 343.828125 C 23.199219 338.125 27.816406 333.515625 33.5 333.515625 L 342.527344 333.515625 C 348.226562 333.515625 352.828125 338.125 352.828125 343.828125 C 352.828125 349.527344 348.226562 354.136719 342.527344 354.136719 Z M 342.527344 318.195312 L 33.5 318.195312 C 27.816406 318.195312 23.199219 313.589844 23.199219 307.886719 C 23.199219 302.1875 27.816406 297.578125 33.5 297.578125 L 342.527344 297.578125 C 348.226562 297.578125 352.828125 302.1875 352.828125 307.886719 C 352.828125 313.589844 348.226562 318.195312 342.527344 318.195312 Z M 342.527344 318.195312 " fill-opacity="1" fill-rule="nonzero"/></g><path fill="#ffcc4d" d="M 31.996094 86.519531 C 31.996094 87.472656 31.90625 88.414062 31.71875 89.351562 C 31.535156 90.285156 31.257812 91.191406 30.894531 92.070312 C 30.53125 92.949219 30.082031 93.785156 29.554688 94.578125 C 29.027344 95.371094 28.425781 96.101562 27.753906 96.777344 C 27.078125 97.449219 26.347656 98.050781 25.554688 98.582031 C 24.765625 99.109375 23.929688 99.558594 23.050781 99.921875 C 22.171875 100.285156 21.265625 100.5625 20.332031 100.746094 C 19.398438 100.933594 18.457031 101.027344 17.503906 101.027344 C 16.554688 101.027344 15.609375 100.933594 14.675781 100.746094 C 13.742188 100.5625 12.835938 100.285156 11.957031 99.921875 C 11.078125 99.558594 10.242188 99.109375 9.453125 98.582031 C 8.660156 98.050781 7.929688 97.449219 7.257812 96.777344 C 6.582031 96.101562 5.980469 95.371094 5.453125 94.578125 C 4.925781 93.785156 4.476562 92.949219 4.113281 92.070312 C 3.75 91.191406 3.476562 90.285156 3.289062 89.351562 C 3.105469 88.414062 3.011719 87.472656 3.011719 86.519531 C 3.011719 85.566406 3.105469 84.625 3.289062 83.691406 C 3.476562 82.753906 3.75 81.847656 4.113281 80.96875 C 4.476562 80.089844 4.925781 79.253906 5.453125 78.460938 C 5.980469 77.667969 6.582031 76.9375 7.257812 76.261719 C 7.929688 75.589844 8.660156 74.988281 9.453125 74.457031 C 10.242188 73.929688 11.078125 73.484375 11.957031 73.117188 C 12.835938 72.753906 13.742188 72.480469 14.675781 72.292969 C 15.609375 72.105469 16.554688 72.015625 17.503906 72.015625 C 18.457031 72.015625 19.398438 72.105469 20.332031 72.292969 C 21.265625 72.480469 22.171875 72.753906 23.050781 73.117188 C 23.929688 73.484375 24.765625 73.929688 25.554688 74.457031 C 26.347656 74.988281 27.078125 75.589844 27.753906 76.261719 C 28.425781 76.9375 29.027344 77.667969 29.554688 78.460938 C 30.082031 79.253906 30.53125 80.089844 30.894531 80.96875 C 31.257812 81.847656 31.535156 82.753906 31.71875 83.691406 C 31.90625 84.625 31.996094 85.566406 31.996094 86.519531 Z M 31.996094 86.519531 " fill-opacity="1" fill-rule="nonzero"/><path fill="#f4900c" d="M 84.410156 81.902344 C 84.410156 82.707031 84.328125 83.507812 84.171875 84.296875 C 84.015625 85.089844 83.78125 85.859375 83.472656 86.605469 C 83.164062 87.347656 82.789062 88.058594 82.339844 88.730469 C 81.890625 89.398438 81.382812 90.019531 80.8125 90.589844 C 80.242188 91.160156 79.621094 91.671875 78.953125 92.117188 C 78.28125 92.566406 77.574219 92.945312 76.828125 93.253906 C 76.085938 93.5625 75.316406 93.796875 74.527344 93.953125 C 73.734375 94.113281 72.9375 94.191406 72.128906 94.191406 C 71.324219 94.191406 70.523438 94.113281 69.734375 93.953125 C 68.945312 93.796875 68.175781 93.5625 67.429688 93.253906 C 66.6875 92.945312 65.980469 92.566406 65.308594 92.117188 C 64.636719 91.671875 64.019531 91.160156 63.449219 90.589844 C 62.878906 90.019531 62.367188 89.398438 61.921875 88.730469 C 61.472656 88.058594 61.09375 87.347656 60.785156 86.605469 C 60.476562 85.859375 60.246094 85.089844 60.085938 84.296875 C 59.929688 83.507812 59.851562 82.707031 59.851562 81.902344 C 59.851562 81.09375 59.929688 80.296875 60.085938 79.503906 C 60.246094 78.710938 60.476562 77.945312 60.785156 77.199219 C 61.09375 76.453125 61.472656 75.746094 61.921875 75.074219 C 62.367188 74.402344 62.878906 73.78125 63.449219 73.210938 C 64.019531 72.640625 64.636719 72.132812 65.308594 71.683594 C 65.980469 71.234375 66.6875 70.855469 67.429688 70.546875 C 68.175781 70.238281 68.945312 70.003906 69.734375 69.847656 C 70.523438 69.691406 71.324219 69.613281 72.128906 69.613281 C 72.9375 69.613281 73.734375 69.691406 74.527344 69.847656 C 75.316406 70.003906 76.085938 70.238281 76.828125 70.546875 C 77.574219 70.855469 78.28125 71.234375 78.953125 71.683594 C 79.621094 72.132812 80.242188 72.640625 80.8125 73.210938 C 81.382812 73.78125 81.890625 74.402344 82.339844 75.074219 C 82.789062 75.746094 83.164062 76.453125 83.472656 77.199219 C 83.78125 77.945312 84.015625 78.710938 84.171875 79.503906 C 84.328125 80.296875 84.410156 81.09375 84.410156 81.902344 Z M 84.410156 81.902344 " fill-opacity="1" fill-rule="nonzero"/><g clip-path="url(#403339c8b8)"><path fill="#ffcc4d" d="M 145.75 39.929688 C 145.75 40.53125 145.722656 41.132812 145.660156 41.734375 C 145.601562 42.332031 145.515625 42.929688 145.398438 43.519531 C 145.28125 44.109375 145.132812 44.691406 144.960938 45.269531 C 144.785156 45.847656 144.582031 46.414062 144.351562 46.96875 C 144.121094 47.527344 143.863281 48.070312 143.582031 48.601562 C 143.296875 49.132812 142.988281 49.648438 142.652344 50.148438 C 142.320312 50.648438 141.960938 51.132812 141.578125 51.597656 C 141.199219 52.0625 140.792969 52.511719 140.367188 52.9375 C 139.941406 53.363281 139.496094 53.765625 139.03125 54.148438 C 138.566406 54.53125 138.082031 54.890625 137.582031 55.222656 C 137.082031 55.558594 136.566406 55.867188 136.035156 56.152344 C 135.503906 56.433594 134.960938 56.691406 134.40625 56.921875 C 133.851562 57.152344 133.285156 57.355469 132.707031 57.53125 C 132.132812 57.707031 131.550781 57.851562 130.957031 57.96875 C 130.367188 58.085938 129.773438 58.175781 129.175781 58.234375 C 128.574219 58.292969 127.976562 58.324219 127.375 58.324219 C 126.773438 58.324219 126.171875 58.292969 125.574219 58.234375 C 124.972656 58.175781 124.378906 58.085938 123.789062 57.96875 C 123.199219 57.851562 122.613281 57.707031 122.039062 57.53125 C 121.464844 57.355469 120.898438 57.152344 120.339844 56.921875 C 119.785156 56.691406 119.242188 56.433594 118.710938 56.152344 C 118.179688 55.867188 117.664062 55.558594 117.164062 55.222656 C 116.664062 54.890625 116.179688 54.53125 115.714844 54.148438 C 115.25 53.765625 114.804688 53.363281 114.378906 52.9375 C 113.953125 52.511719 113.550781 52.0625 113.167969 51.597656 C 112.785156 51.132812 112.429688 50.648438 112.09375 50.148438 C 111.757812 49.648438 111.449219 49.132812 111.167969 48.601562 C 110.882812 48.070312 110.625 47.527344 110.394531 46.96875 C 110.164062 46.414062 109.964844 45.847656 109.789062 45.269531 C 109.613281 44.691406 109.46875 44.109375 109.351562 43.519531 C 109.234375 42.929688 109.144531 42.332031 109.085938 41.734375 C 109.027344 41.132812 108.996094 40.53125 108.996094 39.929688 C 108.996094 39.328125 109.027344 38.726562 109.085938 38.128906 C 109.144531 37.527344 109.234375 36.933594 109.351562 36.34375 C 109.46875 35.75 109.613281 35.167969 109.789062 34.589844 C 109.964844 34.015625 110.164062 33.449219 110.394531 32.890625 C 110.625 32.335938 110.882812 31.792969 111.167969 31.261719 C 111.449219 30.730469 111.757812 30.214844 112.09375 29.710938 C 112.429688 29.210938 112.785156 28.726562 113.167969 28.261719 C 113.550781 27.796875 113.953125 27.351562 114.378906 26.925781 C 114.804688 26.5 115.25 26.09375 115.714844 25.714844 C 116.179688 25.332031 116.664062 24.972656 117.164062 24.636719 C 117.664062 24.304688 118.179688 23.992188 118.710938 23.710938 C 119.242188 23.425781 119.785156 23.167969 120.339844 22.9375 C 120.898438 22.707031 121.464844 22.503906 122.039062 22.332031 C 122.613281 22.15625 123.199219 22.007812 123.789062 21.890625 C 124.378906 21.773438 124.972656 21.6875 125.574219 21.628906 C 126.171875 21.566406 126.773438 21.539062 127.375 21.539062 C 127.976562 21.539062 128.574219 21.566406 129.175781 21.628906 C 129.773438 21.6875 130.367188 21.773438 130.957031 21.890625 C 131.550781 22.007812 132.132812 22.15625 132.707031 22.332031 C 133.285156 22.503906 133.851562 22.707031 134.40625 22.9375 C 134.960938 23.167969 135.503906 23.425781 136.035156 23.710938 C 136.566406 23.992188 137.082031 24.304688 137.582031 24.636719 C 138.082031 24.972656 138.566406 25.332031 139.03125 25.714844 C 139.496094 26.09375 139.941406 26.5 140.367188 26.925781 C 140.792969 27.351562 141.199219 27.796875 141.578125 28.261719 C 141.960938 28.726562 142.320312 29.210938 142.652344 29.710938 C 142.988281 30.214844 143.296875 30.730469 143.582031 31.261719 C 143.863281 31.792969 144.121094 32.335938 144.351562 32.890625 C 144.582031 33.449219 144.785156 34.015625 144.960938 34.589844 C 145.132812 35.167969 145.28125 35.75 145.398438 36.34375 C 145.515625 36.933594 145.601562 37.527344 145.660156 38.128906 C 145.722656 38.726562 145.75 39.328125 145.75 39.929688 Z M 145.75 39.929688 " fill-opacity="1" fill-rule="nonzero"/></g><path fill="#ffcc4d" d="M 373.019531 86.519531 C 373.019531 87.472656 372.925781 88.414062 372.742188 89.351562 C 372.554688 90.285156 372.28125 91.191406 371.914062 92.070312 C 371.550781 92.949219 371.105469 93.785156 370.578125 94.578125 C 370.046875 95.371094 369.445312 96.101562 368.773438 96.777344 C 368.101562 97.449219 367.367188 98.050781 366.578125 98.582031 C 365.785156 99.109375 364.953125 99.558594 364.070312 99.921875 C 363.191406 100.285156 362.285156 100.5625 361.351562 100.746094 C 360.417969 100.933594 359.476562 101.027344 358.527344 101.027344 C 357.574219 101.027344 356.632812 100.933594 355.699219 100.746094 C 354.765625 100.5625 353.859375 100.285156 352.980469 99.921875 C 352.101562 99.558594 351.265625 99.109375 350.472656 98.582031 C 349.683594 98.050781 348.949219 97.449219 348.277344 96.777344 C 347.605469 96.101562 347.003906 95.371094 346.476562 94.578125 C 345.945312 93.785156 345.5 92.949219 345.136719 92.070312 C 344.769531 91.191406 344.496094 90.285156 344.3125 89.351562 C 344.125 88.414062 344.03125 87.472656 344.03125 86.519531 C 344.03125 85.566406 344.125 84.625 344.3125 83.691406 C 344.496094 82.753906 344.769531 81.847656 345.136719 80.96875 C 345.5 80.089844 345.945312 79.253906 346.476562 78.460938 C 347.003906 77.667969 347.605469 76.9375 348.277344 76.261719 C 348.949219 75.589844 349.683594 74.988281 350.472656 74.457031 C 351.265625 73.929688 352.101562 73.484375 352.980469 73.117188 C 353.859375 72.753906 354.765625 72.480469 355.699219 72.292969 C 356.632812 72.105469 357.574219 72.015625 358.527344 72.015625 C 359.476562 72.015625 360.417969 72.105469 361.351562 72.292969 C 362.285156 72.480469 363.191406 72.753906 364.070312 73.117188 C 364.953125 73.484375 365.785156 73.929688 366.578125 74.457031 C 367.367188 74.988281 368.101562 75.589844 368.773438 76.261719 C 369.445312 76.9375 370.046875 77.667969 370.578125 78.460938 C 371.105469 79.253906 371.550781 80.089844 371.914062 80.96875 C 372.28125 81.847656 372.554688 82.753906 372.742188 83.691406 C 372.925781 84.625 373.019531 85.566406 373.019531 86.519531 Z M 373.019531 86.519531 " fill-opacity="1" fill-rule="nonzero"/><path fill="#f4900c" d="M 316.179688 81.902344 C 316.179688 82.707031 316.101562 83.507812 315.941406 84.296875 C 315.785156 85.089844 315.550781 85.859375 315.242188 86.605469 C 314.933594 87.347656 314.558594 88.058594 314.109375 88.730469 C 313.660156 89.398438 313.152344 90.019531 312.582031 90.589844 C 312.011719 91.160156 311.390625 91.671875 310.722656 92.117188 C 310.050781 92.566406 309.34375 92.945312 308.597656 93.253906 C 307.855469 93.5625 307.085938 93.796875 306.296875 93.953125 C 305.503906 94.113281 304.707031 94.191406 303.898438 94.191406 C 303.09375 94.191406 302.296875 94.113281 301.503906 93.953125 C 300.714844 93.796875 299.945312 93.5625 299.203125 93.253906 C 298.457031 92.945312 297.75 92.566406 297.078125 92.117188 C 296.40625 91.671875 295.789062 91.160156 295.21875 90.589844 C 294.648438 90.019531 294.136719 89.398438 293.691406 88.730469 C 293.242188 88.058594 292.863281 87.347656 292.554688 86.605469 C 292.246094 85.859375 292.015625 85.089844 291.855469 84.296875 C 291.699219 83.507812 291.621094 82.707031 291.621094 81.902344 C 291.621094 81.09375 291.699219 80.296875 291.855469 79.503906 C 292.015625 78.710938 292.246094 77.945312 292.554688 77.199219 C 292.863281 76.453125 293.242188 75.746094 293.691406 75.074219 C 294.136719 74.402344 294.648438 73.78125 295.21875 73.210938 C 295.789062 72.640625 296.40625 72.132812 297.078125 71.683594 C 297.75 71.234375 298.457031 70.855469 299.203125 70.546875 C 299.945312 70.238281 300.714844 70.003906 301.503906 69.847656 C 302.296875 69.691406 303.09375 69.613281 303.898438 69.613281 C 304.707031 69.613281 305.503906 69.691406 306.296875 69.847656 C 307.085938 70.003906 307.855469 70.238281 308.597656 70.546875 C 309.34375 70.855469 310.050781 71.234375 310.722656 71.683594 C 311.390625 72.132812 312.011719 72.640625 312.582031 73.210938 C 313.152344 73.78125 313.660156 74.402344 314.109375 75.074219 C 314.558594 75.746094 314.933594 76.453125 315.242188 77.199219 C 315.550781 77.945312 315.785156 78.710938 315.941406 79.503906 C 316.101562 80.296875 316.179688 81.09375 316.179688 81.902344 Z M 316.179688 81.902344 " fill-opacity="1" fill-rule="nonzero"/><g clip-path="url(#196dbf506c)"><path fill="#ffcc4d" d="M 267.03125 39.929688 C 267.03125 40.53125 267.003906 41.132812 266.945312 41.734375 C 266.886719 42.332031 266.796875 42.929688 266.679688 43.519531 C 266.5625 44.109375 266.417969 44.691406 266.242188 45.269531 C 266.066406 45.847656 265.863281 46.414062 265.632812 46.96875 C 265.402344 47.527344 265.148438 48.070312 264.863281 48.601562 C 264.578125 49.132812 264.269531 49.648438 263.9375 50.148438 C 263.601562 50.648438 263.242188 51.132812 262.863281 51.597656 C 262.480469 52.0625 262.078125 52.511719 261.652344 52.9375 C 261.226562 53.363281 260.78125 53.765625 260.316406 54.148438 C 259.847656 54.53125 259.367188 54.890625 258.867188 55.222656 C 258.367188 55.558594 257.851562 55.867188 257.320312 56.152344 C 256.789062 56.433594 256.246094 56.691406 255.6875 56.921875 C 255.132812 57.152344 254.566406 57.355469 253.992188 57.53125 C 253.414062 57.707031 252.832031 57.851562 252.242188 57.96875 C 251.652344 58.085938 251.054688 58.175781 250.457031 58.234375 C 249.859375 58.292969 249.257812 58.324219 248.65625 58.324219 C 248.054688 58.324219 247.453125 58.292969 246.855469 58.234375 C 246.257812 58.175781 245.660156 58.085938 245.070312 57.96875 C 244.480469 57.851562 243.898438 57.707031 243.320312 57.53125 C 242.746094 57.355469 242.179688 57.152344 241.625 56.921875 C 241.066406 56.691406 240.523438 56.433594 239.992188 56.152344 C 239.460938 55.867188 238.945312 55.558594 238.445312 55.222656 C 237.945312 54.890625 237.464844 54.53125 237 54.148438 C 236.53125 53.765625 236.085938 53.363281 235.660156 52.9375 C 235.238281 52.511719 234.832031 52.0625 234.449219 51.597656 C 234.070312 51.132812 233.710938 50.648438 233.375 50.148438 C 233.042969 49.648438 232.734375 49.132812 232.449219 48.601562 C 232.164062 48.070312 231.910156 47.527344 231.679688 46.96875 C 231.449219 46.414062 231.246094 45.847656 231.070312 45.269531 C 230.894531 44.691406 230.75 44.109375 230.632812 43.519531 C 230.515625 42.929688 230.425781 42.332031 230.367188 41.734375 C 230.308594 41.132812 230.28125 40.53125 230.28125 39.929688 C 230.28125 39.328125 230.308594 38.726562 230.367188 38.128906 C 230.425781 37.527344 230.515625 36.933594 230.632812 36.34375 C 230.75 35.75 230.894531 35.167969 231.070312 34.589844 C 231.246094 34.015625 231.449219 33.449219 231.679688 32.890625 C 231.910156 32.335938 232.164062 31.792969 232.449219 31.261719 C 232.734375 30.730469 233.042969 30.214844 233.375 29.710938 C 233.710938 29.210938 234.070312 28.726562 234.449219 28.261719 C 234.832031 27.796875 235.238281 27.351562 235.660156 26.925781 C 236.085938 26.5 236.53125 26.09375 237 25.714844 C 237.464844 25.332031 237.945312 24.972656 238.445312 24.636719 C 238.945312 24.304688 239.460938 23.992188 239.992188 23.710938 C 240.523438 23.425781 241.066406 23.167969 241.625 22.9375 C 242.179688 22.707031 242.746094 22.503906 243.320312 22.332031 C 243.898438 22.15625 244.480469 22.007812 245.070312 21.890625 C 245.660156 21.773438 246.257812 21.6875 246.855469 21.628906 C 247.453125 21.566406 248.054688 21.539062 248.65625 21.539062 C 249.257812 21.539062 249.859375 21.566406 250.457031 21.628906 C 251.054688 21.6875 251.652344 21.773438 252.242188 21.890625 C 252.832031 22.007812 253.414062 22.15625 253.992188 22.332031 C 254.566406 22.503906 255.132812 22.707031 255.6875 22.9375 C 256.246094 23.167969 256.789062 23.425781 257.320312 23.710938 C 257.851562 23.992188 258.367188 24.304688 258.867188 24.636719 C 259.367188 24.972656 259.847656 25.332031 260.316406 25.714844 C 260.78125 26.09375 261.226562 26.5 261.652344 26.925781 C 262.078125 27.351562 262.480469 27.796875 262.863281 28.261719 C 263.242188 28.726562 263.601562 29.210938 263.9375 29.710938 C 264.269531 30.214844 264.578125 30.730469 264.863281 31.261719 C 265.148438 31.792969 265.402344 32.335938 265.632812 32.890625 C 265.863281 33.449219 266.066406 34.015625 266.242188 34.589844 C 266.417969 35.167969 266.5625 35.75 266.679688 36.34375 C 266.796875 36.933594 266.886719 37.527344 266.945312 38.128906 C 267.003906 38.726562 267.03125 39.328125 267.03125 39.929688 Z M 267.03125 39.929688 " fill-opacity="1" fill-rule="nonzero"/></g><path fill="#f4900c" d="M 205.753906 60.664062 C 205.753906 61.265625 205.722656 61.867188 205.664062 62.464844 C 205.605469 63.066406 205.515625 63.660156 205.398438 64.25 C 205.28125 64.84375 205.136719 65.425781 204.960938 66.003906 C 204.789062 66.578125 204.585938 67.144531 204.355469 67.703125 C 204.125 68.257812 203.867188 68.800781 203.582031 69.332031 C 203.300781 69.863281 202.992188 70.378906 202.65625 70.882812 C 202.320312 71.382812 201.964844 71.867188 201.582031 72.332031 C 201.199219 72.796875 200.796875 73.242188 200.371094 73.667969 C 199.945312 74.09375 199.5 74.5 199.035156 74.878906 C 198.570312 75.261719 198.085938 75.621094 197.585938 75.957031 C 197.085938 76.289062 196.570312 76.601562 196.039062 76.882812 C 195.507812 77.167969 194.964844 77.425781 194.410156 77.65625 C 193.851562 77.886719 193.285156 78.089844 192.710938 78.265625 C 192.136719 78.4375 191.550781 78.585938 190.960938 78.703125 C 190.371094 78.820312 189.777344 78.90625 189.175781 78.96875 C 188.578125 79.027344 187.976562 79.054688 187.375 79.054688 C 186.773438 79.054688 186.175781 79.027344 185.574219 78.96875 C 184.976562 78.90625 184.382812 78.820312 183.792969 78.703125 C 183.199219 78.585938 182.617188 78.4375 182.042969 78.265625 C 181.464844 78.089844 180.898438 77.886719 180.34375 77.65625 C 179.789062 77.425781 179.246094 77.167969 178.714844 76.882812 C 178.183594 76.601562 177.667969 76.289062 177.167969 75.957031 C 176.667969 75.621094 176.183594 75.261719 175.71875 74.878906 C 175.253906 74.5 174.808594 74.09375 174.382812 73.667969 C 173.957031 73.242188 173.550781 72.796875 173.171875 72.332031 C 172.789062 71.867188 172.429688 71.382812 172.097656 70.882812 C 171.761719 70.378906 171.453125 69.863281 171.167969 69.332031 C 170.886719 68.800781 170.628906 68.257812 170.398438 67.703125 C 170.167969 67.144531 169.964844 66.578125 169.789062 66.003906 C 169.617188 65.425781 169.46875 64.84375 169.351562 64.25 C 169.234375 63.660156 169.148438 63.066406 169.089844 62.464844 C 169.027344 61.867188 169 61.265625 169 60.664062 C 169 60.0625 169.027344 59.460938 169.089844 58.859375 C 169.148438 58.261719 169.234375 57.664062 169.351562 57.074219 C 169.46875 56.484375 169.617188 55.902344 169.789062 55.324219 C 169.964844 54.746094 170.167969 54.179688 170.398438 53.625 C 170.628906 53.070312 170.886719 52.523438 171.167969 51.992188 C 171.453125 51.460938 171.761719 50.945312 172.097656 50.445312 C 172.429688 49.945312 172.789062 49.460938 173.171875 48.996094 C 173.554688 48.53125 173.957031 48.082031 174.382812 47.65625 C 174.808594 47.230469 175.253906 46.828125 175.71875 46.445312 C 176.183594 46.0625 176.667969 45.707031 177.167969 45.371094 C 177.667969 45.035156 178.183594 44.726562 178.714844 44.441406 C 179.246094 44.160156 179.789062 43.902344 180.34375 43.671875 C 180.898438 43.441406 181.464844 43.238281 182.042969 43.0625 C 182.617188 42.886719 183.199219 42.742188 183.792969 42.625 C 184.382812 42.507812 184.976562 42.417969 185.574219 42.359375 C 186.175781 42.300781 186.773438 42.269531 187.375 42.269531 C 187.976562 42.269531 188.578125 42.300781 189.175781 42.359375 C 189.777344 42.417969 190.371094 42.507812 190.960938 42.625 C 191.550781 42.742188 192.136719 42.886719 192.710938 43.0625 C 193.285156 43.238281 193.851562 43.441406 194.410156 43.671875 C 194.964844 43.902344 195.507812 44.160156 196.039062 44.441406 C 196.570312 44.726562 197.085938 45.035156 197.585938 45.371094 C 198.085938 45.707031 198.570312 46.0625 199.035156 46.445312 C 199.5 46.828125 199.945312 47.230469 200.371094 47.65625 C 200.796875 48.082031 201.199219 48.53125 201.582031 48.996094 C 201.964844 49.460938 202.320312 49.945312 202.65625 50.445312 C 202.992188 50.945312 203.300781 51.460938 203.582031 51.992188 C 203.867188 52.523438 204.125 53.070312 204.355469 53.625 C 204.585938 54.179688 204.789062 54.746094 204.960938 55.324219 C 205.136719 55.902344 205.28125 56.484375 205.398438 57.074219 C 205.515625 57.664062 205.605469 58.261719 205.664062 58.859375 C 205.722656 59.460938 205.753906 60.0625 205.753906 60.664062 Z M 205.753906 60.664062 " fill-opacity="1" fill-rule="nonzero"/></svg>