<svg xmlns="http://www.w3.org/2000/svg" xmlns:xlink="http://www.w3.org/1999/xlink" width="500" zoomAndPan="magnify" viewBox="0 0 375 374.999991" height="500" preserveAspectRatio="xMidYMid meet" version="1.0"><defs><g/></defs><g fill="#fb5718" fill-opacity="1"><g transform="translate(29.520537, 285.936525)"><g><path d="M 54.21875 1.171875 C 48.457031 1.171875 44.328125 -0.113281 41.828125 -2.6875 C 39.335938 -5.257812 38.09375 -10.128906 38.09375 -17.296875 C 38.09375 -22.117188 38.597656 -28.304688 39.609375 -35.859375 C 40.617188 -43.421875 42.296875 -53.828125 44.640625 -67.078125 C 48.691406 -91.535156 51.882812 -112.722656 54.21875 -130.640625 C 55.625 -141.859375 56.328125 -151.207031 56.328125 -158.6875 C 56.328125 -165.695312 53.753906 -169.203125 48.609375 -169.203125 C 44.554688 -169.203125 39.6875 -167.132812 34 -163 C 28.3125 -158.875 22.039062 -152.296875 15.1875 -143.265625 C 13.007812 -140.296875 10.597656 -138.8125 7.953125 -138.8125 C 5.765625 -138.8125 3.851562 -139.863281 2.21875 -141.96875 C 0.582031 -144.070312 -0.234375 -146.453125 -0.234375 -149.109375 C -0.234375 -151.597656 0.269531 -154.125 1.28125 -156.6875 C 2.289062 -159.257812 3.96875 -162.1875 6.3125 -165.46875 C 13.789062 -175.90625 22.125 -183.96875 31.3125 -189.65625 C 40.507812 -195.34375 49.703125 -198.1875 58.890625 -198.1875 C 67.460938 -198.1875 74.046875 -195.457031 78.640625 -190 C 83.234375 -184.550781 85.53125 -176.601562 85.53125 -166.15625 C 85.53125 -161.957031 85.140625 -157.015625 84.359375 -151.328125 C 83.585938 -145.640625 82.890625 -141.003906 82.265625 -137.421875 C 81.640625 -133.835938 81.171875 -131.34375 80.859375 -129.9375 C 89.742188 -155.332031 99.71875 -173.054688 110.78125 -183.109375 C 121.84375 -193.160156 133.992188 -198.1875 147.234375 -198.1875 C 157.359375 -198.1875 165.34375 -194.597656 171.1875 -187.421875 C 177.03125 -180.253906 179.953125 -170.128906 179.953125 -157.046875 C 179.953125 -151.910156 179.25 -145.523438 177.84375 -137.890625 C 185.632812 -159.390625 194.75 -174.8125 205.1875 -184.15625 C 215.625 -193.507812 227.625 -198.1875 241.1875 -198.1875 C 252.09375 -198.1875 260.460938 -194.675781 266.296875 -187.65625 C 272.140625 -180.644531 275.0625 -170.832031 275.0625 -158.21875 C 275.0625 -151.363281 274.050781 -143.023438 272.03125 -133.203125 L 257.78125 -66.375 C 256.21875 -58.582031 255.4375 -51.878906 255.4375 -46.265625 C 255.4375 -39.722656 256.953125 -34.816406 259.984375 -31.546875 C 263.023438 -28.273438 267.273438 -26.640625 272.734375 -26.640625 C 277.867188 -26.640625 282.890625 -28.351562 287.796875 -31.78125 C 292.710938 -35.207031 298.519531 -40.894531 305.21875 -48.84375 C 307.082031 -51.019531 309.1875 -52.109375 311.53125 -52.109375 C 313.550781 -52.109375 315.144531 -51.171875 316.3125 -49.296875 C 317.476562 -47.429688 318.0625 -44.863281 318.0625 -41.59375 C 318.0625 -35.519531 316.582031 -30.691406 313.625 -27.109375 C 305.53125 -17.296875 297.507812 -10.128906 289.5625 -5.609375 C 281.613281 -1.085938 273.273438 1.171875 264.546875 1.171875 C 251.304688 1.171875 240.945312 -2.757812 233.46875 -10.625 C 225.988281 -18.5 222.25 -29.054688 222.25 -42.296875 C 222.25 -51.492188 224.117188 -64.816406 227.859375 -82.265625 L 237.203125 -125.03125 C 237.515625 -126.4375 238.0625 -128.929688 238.84375 -132.515625 C 239.625 -136.097656 240.25 -139.484375 240.71875 -142.671875 C 241.1875 -145.867188 241.421875 -149.023438 241.421875 -152.140625 C 241.421875 -157.597656 240.367188 -161.6875 238.265625 -164.40625 C 236.160156 -167.132812 233.160156 -168.5 229.265625 -168.5 C 221.941406 -168.5 214.265625 -163.785156 206.234375 -154.359375 C 198.210938 -144.929688 190.578125 -129.3125 183.328125 -107.5 C 176.085938 -85.6875 170.210938 -57.332031 165.703125 -22.4375 C 164.609375 -13.082031 162.695312 -6.804688 159.96875 -3.609375 C 157.238281 -0.421875 152.835938 1.171875 146.765625 1.171875 C 141.460938 1.171875 137.601562 -0.0703125 135.1875 -2.5625 C 132.78125 -5.0625 131.578125 -9.738281 131.578125 -16.59375 C 131.578125 -22.976562 132.429688 -31.347656 134.140625 -41.703125 C 135.859375 -52.066406 138.039062 -64.265625 140.6875 -78.296875 C 147.851562 -115.992188 151.4375 -140.296875 151.4375 -151.203125 C 151.4375 -157.128906 150.304688 -161.492188 148.046875 -164.296875 C 145.785156 -167.097656 142.398438 -168.5 137.890625 -168.5 C 130.253906 -168.5 122.382812 -164.175781 114.28125 -155.53125 C 106.175781 -146.882812 98.265625 -131.535156 90.546875 -109.484375 C 82.835938 -87.441406 76.414062 -57.644531 71.28125 -20.09375 C 70.1875 -12.144531 68.585938 -6.613281 66.484375 -3.5 C 64.378906 -0.382812 60.289062 1.171875 54.21875 1.171875 Z M 54.21875 1.171875 "/></g></g></g></svg>