<svg xmlns="http://www.w3.org/2000/svg" xmlns:xlink="http://www.w3.org/1999/xlink" width="500" zoomAndPan="magnify" viewBox="0 0 375 374.999991" height="500" preserveAspectRatio="xMidYMid meet" version="1.0"><defs><clipPath id="96fbb3e80c"><path d="M 2.0625 2.0625 L 372.5625 2.0625 L 372.5625 372.5625 L 2.0625 372.5625 Z M 2.0625 2.0625 " clip-rule="nonzero"/></clipPath><clipPath id="5e8d362d55"><path d="M 2.0625 187.5 C 2.0625 236.679688 21.601562 283.847656 56.375 318.625 C 91.152344 353.398438 138.320312 372.9375 187.5 372.9375 C 236.679688 372.9375 283.847656 353.398438 318.625 318.625 C 353.398438 283.847656 372.9375 236.679688 372.9375 187.5 C 372.9375 138.320312 353.398438 91.152344 318.625 56.375 C 283.847656 21.601562 236.679688 2.0625 187.5 2.0625 C 138.320312 2.0625 91.152344 21.601562 56.375 56.375 C 21.601562 91.152344 2.0625 138.320312 2.0625 187.5 Z M 2.0625 187.5 " clip-rule="nonzero"/></clipPath><clipPath id="00ae4c9ddf"><path d="M 60 63 L 316 63 L 316 314 L 60 314 Z M 60 63 " clip-rule="nonzero"/></clipPath><clipPath id="bb74c8f92b"><path d="M 2.0625 187.5 C 2.0625 236.679688 21.601562 283.847656 56.375 318.625 C 91.152344 353.398438 138.320312 372.9375 187.5 372.9375 C 236.679688 372.9375 283.847656 353.398438 318.625 318.625 C 353.398438 283.847656 372.9375 236.679688 372.9375 187.5 C 372.9375 138.320312 353.398438 91.152344 318.625 56.375 C 283.847656 21.601562 236.679688 2.0625 187.5 2.0625 C 138.320312 2.0625 91.152344 21.601562 56.375 56.375 C 21.601562 91.152344 2.0625 138.320312 2.0625 187.5 Z M 2.0625 187.5 " clip-rule="nonzero"/></clipPath></defs><g clip-path="url(#96fbb3e80c)"><g clip-path="url(#5e8d362d55)"><path fill="var(--clr-agree)" d="M 372.5625 331.398438 C 372.5625 354.132812 354.132812 372.5625 331.398438 372.5625 L 43.230469 372.5625 C 20.496094 372.5625 2.0625 354.132812 2.0625 331.398438 L 2.0625 43.230469 C 2.0625 20.496094 20.496094 2.0625 43.230469 2.0625 L 331.398438 2.0625 C 354.132812 2.0625 372.5625 20.496094 372.5625 43.230469 Z M 372.5625 331.398438 " fill-opacity="1" fill-rule="nonzero"/></g></g><g clip-path="url(#00ae4c9ddf)"><g clip-path="url(#bb74c8f92b)"><path fill="var(--clr-font-opposite)" d="M 303.402344 67.539062 C 291.507812 59.808594 275.574219 63.195312 267.816406 75.113281 L 155.78125 247.796875 L 104.023438 199.941406 C 93.585938 190.289062 77.304688 190.9375 67.664062 201.363281 C 58.019531 211.796875 58.65625 228.078125 69.09375 237.722656 L 143.285156 306.324219 C 148.226562 310.90625 154.503906 313.171875 160.738281 313.171875 C 167.667969 313.171875 176.527344 310.269531 182.34375 301.449219 C 185.757812 296.242188 310.988281 103.128906 310.988281 103.128906 C 318.71875 91.199219 315.320312 75.269531 303.402344 67.539062 Z M 303.402344 67.539062 " fill-opacity="1" fill-rule="nonzero"/></g></g></svg>