<svg xmlns="http://www.w3.org/2000/svg" xmlns:xlink="http://www.w3.org/1999/xlink" width="1000" zoomAndPan="magnify" viewBox="0 0 750 749.999995" height="1000" preserveAspectRatio="xMidYMid meet" version="1.0"><defs><clipPath id="6838d92252"><path d="M 20.375 279 L 71 279 L 71 329 L 20.375 329 Z M 20.375 279 " clip-rule="nonzero"/></clipPath><clipPath id="2fe1a28106"><path d="M 679 279 L 729.875 279 L 729.875 329 L 679 329 Z M 679 279 " clip-rule="nonzero"/></clipPath></defs><path fill="#ffffff" d="M 362.527344 102.382812 C 356.296875 104.183594 344.519531 112.078125 340.917969 116.925781 C 332.882812 127.730469 329.835938 139.78125 332.054688 151.832031 C 335.65625 171.089844 348.675781 184.386719 367.515625 187.988281 C 394.25 193.113281 419.324219 172.335938 419.324219 145.046875 C 419.324219 115.679688 390.925781 94.207031 362.527344 102.382812 Z M 362.527344 102.382812 " fill-opacity="1" fill-rule="nonzero"/><path fill="#ffffff" d="M 173.445312 164.855469 C 159.3125 171.644531 151.695312 183.417969 151.695312 198.378906 C 151.695312 213.617188 159.453125 225.390625 173.859375 232.039062 C 187.019531 237.996094 203.363281 234.949219 214.03125 224.28125 C 231.625 206.550781 226.359375 176.074219 203.78125 165.132812 C 195.191406 160.976562 181.894531 160.839844 173.445312 164.855469 Z M 173.445312 164.855469 " fill-opacity="1" fill-rule="nonzero"/><path fill="#ffffff" d="M 545.378906 164.578125 C 516.152344 177.738281 515.734375 218.046875 544.6875 231.761719 C 557.15625 237.71875 572.945312 235.363281 583.613281 226.222656 C 600.375 211.953125 600.375 184.800781 583.613281 170.535156 C 573.363281 161.667969 557.292969 159.175781 545.378906 164.578125 Z M 545.378906 164.578125 " fill-opacity="1" fill-rule="nonzero"/><path fill="#ffffff" d="M 368.484375 209.042969 C 363.777344 211.261719 361.421875 217.769531 357.542969 238.273438 C 345.214844 304.765625 329.558594 345.90625 316.398438 345.90625 C 303.792969 345.90625 278.167969 320.140625 247.832031 276.644531 C 231.484375 253.234375 227.191406 248.9375 220.402344 248.9375 C 212.09375 249.078125 205.996094 255.3125 205.996094 263.761719 C 205.996094 265.839844 207.9375 277.335938 210.152344 289.109375 C 218.1875 330.53125 220.957031 366.40625 217.078125 380.398438 C 215.277344 387.046875 211.398438 391.617188 207.382812 391.617188 C 193.53125 391.617188 164.992188 377.488281 124.960938 350.617188 C 108.199219 339.394531 92.40625 329.558594 89.773438 328.589844 C 80.769531 325.265625 71.628906 331.777344 71.628906 341.335938 C 71.628906 347.015625 72.738281 349.09375 82.019531 361.835938 C 123.296875 418.078125 146.429688 497.726562 142.96875 572.53125 C 142.136719 590.125 142.414062 594.140625 144.355469 598.851562 C 150.449219 613.671875 170.117188 625.171875 203.226562 633.203125 C 269.300781 649.132812 385.664062 653.984375 477.503906 644.285156 C 551.753906 636.527344 592.339844 623.230469 604.390625 602.730469 L 608.132812 596.355469 L 608.410156 559.371094 C 608.546875 531.390625 609.101562 518.785156 611.039062 507.285156 C 620.042969 450.90625 639.023438 403.394531 669.636719 360.589844 C 674.484375 353.664062 678.777344 346.738281 679.195312 344.9375 C 681.410156 336.347656 674.484375 327.898438 665.203125 327.898438 C 660.214844 327.898438 657.167969 329.421875 642.902344 339.394531 C 600.097656 369.039062 570.730469 385.523438 553.277344 389.816406 C 535.683594 393.972656 532.21875 388.847656 532.21875 359.066406 C 532.359375 337.734375 533.605469 327.34375 540.671875 289.109375 C 543.300781 274.980469 545.101562 261.820312 544.6875 259.742188 C 544.132812 257.667969 541.917969 254.339844 539.5625 252.402344 C 531.945312 246.03125 522.386719 248.664062 515.597656 258.914062 C 482.214844 309.472656 448.136719 345.90625 434.144531 345.90625 C 426.941406 345.90625 417.382812 330.808594 409.765625 307.121094 C 404.640625 291.1875 397.019531 259.605469 393.003906 237.855469 C 391.480469 229.128906 389.402344 219.847656 388.710938 217.496094 C 385.9375 209.042969 376.65625 205.027344 368.484375 209.042969 Z M 456.726562 571.007812 C 487.753906 573.777344 516.011719 577.792969 533.605469 582.089844 C 556.046875 587.351562 556.046875 587.351562 542.472656 591.09375 C 465.589844 611.871094 304.210938 612.980469 216.800781 593.171875 C 196.4375 588.601562 195.191406 587.769531 204.613281 585 C 230.515625 577.65625 284.125 570.589844 331.359375 568.375 C 355.324219 567.265625 433.589844 568.929688 456.726562 571.007812 Z M 456.726562 571.007812 " fill-opacity="1" fill-rule="nonzero"/><g clip-path="url(#6838d92252)"><path fill="#ffffff" d="M 34.78125 281.355469 C 28.546875 284.125 22.039062 292.710938 20.929688 299.640625 C 19.820312 307.8125 21.34375 313.492188 26.191406 319.03125 C 31.871094 325.542969 37.550781 328.175781 45.308594 328.175781 C 53.066406 328.175781 58.746094 325.542969 64.425781 319.03125 C 69.273438 313.492188 70.796875 307.8125 69.6875 299.640625 C 68.582031 292.574219 61.933594 283.984375 55.558594 281.355469 C 49.742188 278.859375 40.324219 279 34.78125 281.355469 Z M 34.78125 281.355469 " fill-opacity="1" fill-rule="nonzero"/></g><g clip-path="url(#2fe1a28106)"><path fill="#ffffff" d="M 694.15625 281.355469 C 687.921875 284.125 681.410156 292.710938 680.300781 299.640625 C 679.195312 307.8125 680.71875 313.492188 685.566406 319.03125 C 691.246094 325.542969 696.925781 328.175781 704.683594 328.175781 C 712.441406 328.175781 718.121094 325.542969 723.800781 319.03125 C 728.648438 313.492188 730.171875 307.8125 729.0625 299.640625 C 727.953125 292.574219 721.304688 283.984375 714.933594 281.355469 C 709.117188 278.859375 699.695312 279 694.15625 281.355469 Z M 694.15625 281.355469 " fill-opacity="1" fill-rule="nonzero"/></g></svg>