<?xml version="1.0" standalone="no"?>
<!DOCTYPE svg PUBLIC "-//W3C//DTD SVG 20010904//EN"
 "http://www.w3.org/TR/2001/REC-SVG-20010904/DTD/svg10.dtd">
<svg version="1.0" xmlns="http://www.w3.org/2000/svg"
 width="1563.000000pt" height="1563.000000pt" viewBox="0 0 1563.000000 1563.000000"
 preserveAspectRatio="xMidYMid meet">
<metadata>
Created by potrace 1.14, written by Peter Selinger 2001-2017
</metadata>
<g transform="translate(0.000000,1563.000000) scale(0.100000,-0.100000)"
fill="#000000" stroke="none">
<path d="M3669 11956 c-2 -2 -47 -6 -99 -10 -147 -10 -208 -18 -305 -43 -33
-8 -70 -17 -82 -19 -22 -4 -191 -61 -248 -84 -16 -6 -30 -11 -30 -10 0 3 -244
-121 -302 -154 -145 -81 -381 -253 -516 -376 -117 -106 -304 -301 -383 -399
-10 -13 -24 -29 -30 -35 -60 -63 -255 -342 -319 -455 -175 -310 -175 -609 -2
-792 90 -96 224 -122 337 -67 76 37 97 59 261 264 261 326 452 523 664 684
358 272 658 352 833 223 56 -42 99 -126 119 -233 13 -71 6 -469 -11 -670 -3
-25 -7 -79 -11 -120 -6 -79 -12 -139 -20 -205 -3 -22 -8 -67 -11 -100 -2 -33
-6 -69 -8 -81 -2 -11 -7 -52 -11 -90 -4 -38 -9 -77 -11 -88 -2 -10 -6 -44 -10
-75 -3 -31 -8 -65 -10 -76 -2 -11 -9 -58 -14 -105 -6 -47 -13 -96 -15 -110 -6
-40 -15 -104 -20 -146 -3 -22 -7 -50 -10 -64 -2 -14 -7 -45 -10 -70 -3 -25
-10 -72 -15 -105 -5 -33 -12 -80 -15 -105 -3 -25 -12 -85 -20 -135 -8 -49 -16
-108 -19 -130 -7 -51 -17 -114 -22 -140 -2 -11 -6 -40 -9 -65 -3 -25 -8 -56
-11 -68 -3 -13 -7 -43 -10 -65 -3 -23 -9 -64 -14 -92 -5 -27 -11 -66 -14 -85
-3 -19 -19 -120 -35 -225 -17 -104 -33 -208 -36 -230 -5 -35 -15 -92 -30 -182
-2 -16 -7 -39 -10 -53 -3 -14 -7 -41 -9 -60 -2 -19 -9 -62 -15 -95 -6 -33 -13
-74 -16 -91 -25 -149 -46 -273 -50 -294 -3 -14 -12 -68 -20 -120 -8 -52 -17
-106 -19 -120 -4 -21 -28 -159 -41 -240 -2 -14 -7 -43 -10 -65 -4 -22 -15 -94
-25 -160 -19 -122 -29 -190 -35 -235 -20 -146 -35 -277 -40 -330 -3 -36 -8
-74 -10 -85 -19 -91 -28 -600 -12 -700 16 -107 19 -122 44 -195 78 -228 264
-332 593 -331 174 0 291 22 391 73 136 70 207 191 278 476 16 64 32 133 34
152 3 19 10 64 15 100 11 62 19 118 27 177 13 101 46 330 50 347 3 12 7 41 10
66 3 25 8 61 11 80 14 84 56 348 60 375 5 32 22 127 28 160 2 11 7 40 11 65 4
25 9 52 10 60 1 8 6 35 10 60 4 25 9 54 12 65 4 19 25 131 38 200 7 37 24 122
31 155 2 14 9 48 14 75 14 79 75 363 120 560 290 1270 738 2426 1176 3035 115
160 123 169 269 315 317 318 603 467 900 468 119 1 163 -5 237 -33 196 -73
300 -240 333 -536 12 -102 -1 -474 -20 -573 -1 -9 -6 -51 -10 -94 -3 -43 -8
-88 -10 -100 -2 -12 -9 -66 -15 -121 -7 -54 -13 -108 -16 -119 -3 -18 -12 -80
-30 -217 -2 -19 -6 -44 -9 -55 -2 -11 -7 -42 -10 -70 -3 -27 -10 -75 -15 -105
-5 -30 -12 -73 -15 -95 -3 -22 -15 -89 -25 -150 -11 -60 -22 -126 -24 -145 -5
-39 -60 -360 -86 -500 -6 -30 -12 -64 -14 -75 -2 -11 -7 -38 -11 -60 -4 -22
-9 -51 -11 -65 -3 -14 -11 -61 -19 -105 -8 -44 -16 -91 -19 -105 -2 -14 -16
-88 -31 -165 -15 -77 -29 -151 -31 -165 -3 -14 -9 -47 -14 -75 -5 -27 -12 -62
-15 -77 -3 -16 -7 -40 -10 -55 -3 -16 -13 -66 -21 -113 -9 -47 -18 -94 -20
-105 -3 -11 -7 -36 -10 -55 -2 -19 -6 -42 -9 -50 -2 -8 -7 -31 -10 -50 -3 -19
-12 -69 -20 -110 -8 -41 -16 -86 -19 -100 -3 -22 -9 -55 -22 -125 -2 -11 -22
-123 -44 -250 -22 -126 -42 -241 -45 -255 -10 -59 -46 -277 -50 -305 -2 -16
-6 -43 -8 -60 -3 -16 -8 -52 -12 -78 -4 -27 -8 -58 -10 -69 -3 -11 -7 -44 -9
-72 -3 -28 -7 -60 -10 -71 -2 -11 -7 -54 -11 -95 -3 -41 -8 -86 -10 -100 -17
-120 -24 -473 -11 -600 16 -159 71 -315 134 -383 52 -55 170 -121 241 -134 14
-2 44 -8 66 -12 46 -10 50 -10 170 -12 132 -1 261 18 350 54 17 6 32 12 35 12
13 0 113 68 144 97 116 111 209 356 251 668 3 25 10 72 15 105 10 63 14 93 25
185 3 30 10 80 15 110 5 30 12 78 15 105 3 28 7 61 10 75 2 14 7 45 10 70 3
25 10 70 15 100 6 30 12 75 15 100 3 25 7 56 10 70 3 14 7 41 10 60 3 19 10
60 15 90 5 30 11 69 13 85 5 34 3 20 57 330 22 127 43 244 45 260 3 17 10 50
15 75 6 25 29 137 51 250 22 113 50 243 61 290 11 47 21 92 23 100 2 8 11 49
20 90 119 557 418 1504 610 1935 7 17 36 82 64 146 137 315 309 626 465 844
140 196 349 414 516 539 395 294 812 295 983 3 30 -51 71 -169 83 -242 19
-107 8 -517 -16 -630 -5 -22 -12 -62 -15 -90 -3 -27 -17 -104 -30 -170 -13
-66 -27 -136 -30 -155 -3 -19 -11 -53 -17 -75 -5 -22 -12 -49 -14 -60 -2 -11
-15 -72 -30 -135 -14 -63 -28 -124 -30 -135 -5 -28 -9 -45 -38 -177 -14 -64
-28 -127 -30 -140 -11 -51 -76 -347 -90 -408 -8 -36 -17 -76 -20 -90 -3 -14
-7 -36 -10 -50 -3 -14 -8 -38 -12 -55 -3 -16 -12 -57 -19 -90 -21 -89 -66
-296 -71 -324 -3 -14 -20 -95 -39 -181 -19 -86 -36 -167 -39 -181 -2 -13 -9
-45 -15 -72 -6 -26 -14 -64 -17 -85 -3 -20 -8 -40 -10 -43 -2 -3 -6 -21 -9
-40 -3 -19 -15 -79 -25 -134 -11 -55 -21 -111 -24 -125 -2 -14 -7 -36 -10 -50
-3 -14 -8 -41 -11 -60 -2 -19 -6 -44 -9 -55 -2 -11 -7 -45 -12 -75 -4 -30 -8
-57 -9 -60 -1 -6 -14 -91 -20 -130 -2 -14 -6 -47 -10 -75 -3 -27 -8 -57 -10
-65 -2 -8 -7 -51 -10 -94 -4 -43 -9 -88 -11 -100 -23 -120 -23 -585 1 -727 2
-13 6 -40 9 -59 16 -110 71 -318 101 -385 7 -16 21 -50 31 -75 10 -24 35 -75
56 -114 21 -38 38 -71 38 -73 0 -9 125 -180 156 -213 18 -19 47 -52 66 -72
217 -240 607 -422 994 -463 113 -13 150 -14 289 -14 158 0 197 2 345 25 77 12
280 67 368 99 263 99 515 249 752 449 176 149 472 455 592 613 64 85 102 162
133 269 30 102 35 142 39 294 6 184 -32 318 -112 396 -50 49 -93 66 -169 65
-96 -1 -194 -59 -287 -171 -155 -188 -473 -506 -613 -613 -104 -79 -216 -149
-288 -180 -53 -22 -98 -40 -110 -42 -5 -2 -35 -10 -65 -18 -99 -29 -238 -38
-363 -24 -76 9 -128 23 -202 55 -230 100 -354 291 -391 600 -6 51 -6 307 0
362 3 25 8 77 11 115 3 39 10 97 15 130 5 33 11 78 15 100 5 39 29 179 41 240
3 17 37 176 75 354 38 179 71 334 73 345 2 12 18 86 36 166 17 80 34 154 36
165 6 31 24 118 29 141 3 12 14 66 26 120 11 55 22 108 25 119 3 11 9 41 14
66 5 25 14 65 19 90 6 24 36 163 66 309 30 146 60 283 65 305 5 22 28 128 50
235 23 107 45 211 50 230 5 19 11 49 14 65 3 17 17 86 31 155 14 69 28 139 31
155 2 17 7 37 9 45 2 8 7 35 10 60 3 25 8 56 10 70 2 14 7 45 10 70 3 25 8 56
10 70 2 14 7 52 11 85 3 33 8 74 10 90 22 179 21 567 -2 715 -5 35 -22 137
-28 175 -35 201 -140 454 -255 616 -252 351 -600 513 -1121 520 -142 2 -339
-21 -500 -58 -36 -8 -69 -16 -75 -17 -131 -31 -366 -130 -520 -221 -450 -265
-803 -668 -1133 -1295 -30 -58 -59 -112 -63 -120 -9 -15 -70 -149 -108 -232
-11 -27 -30 -68 -41 -93 -38 -84 -170 -422 -170 -435 0 -7 -3 -11 -6 -8 -3 4
1 44 10 90 8 45 18 107 21 137 4 30 9 63 11 75 2 12 7 50 10 86 4 36 8 79 11
95 3 17 6 134 8 260 3 221 0 265 -26 455 -7 47 -13 94 -15 105 -5 45 -55 225
-83 300 -42 116 -112 259 -155 318 -96 132 -142 185 -232 268 -127 115 -389
241 -549 263 -22 3 -58 9 -80 12 -81 13 -299 19 -390 10 -443 -43 -813 -194
-1184 -484 -340 -266 -601 -596 -875 -1107 -89 -165 -202 -402 -276 -575 -33
-80 -65 -154 -70 -165 -16 -38 -128 -330 -150 -395 -25 -72 -36 -91 -26 -45 4
17 8 41 11 55 10 63 36 207 40 230 7 39 33 210 40 260 3 25 8 52 10 60 2 8 7
40 10 70 3 30 8 66 10 80 51 326 69 644 51 890 -6 91 -9 119 -22 185 -3 17 -7
44 -10 60 -19 112 -70 259 -126 365 -138 260 -365 432 -646 490 -54 11 -136
22 -182 25 -47 4 -94 8 -106 10 -12 3 -23 3 -25 1z"/>
</g>
</svg>
